{"asset":{"generator":"3D Builder","version":"2.0"},"scene":0,"scenes":[{"nodes":[0]}],"nodes":[{"mesh":0,"matrix":[15.000749588012695,0,0,0,0,4.9048352241516113,-7.0032072067260742,0,0,0.092152439057827,0.06454072892665863,0,-0.15866424143314362,-0.084274619817733765,0.37055563926696777,1]}],"meshes":[{"primitives":[{"attributes":{"POSITION":0,"COLOR_0":5},"mode":4,"indices":6},{"attributes":{"POSITION":1,"TEXCOORD_0":3},"mode":4,"indices":7,"material":0},{"attributes":{"POSITION":2,"TEXCOORD_0":4},"mode":4,"indices":8,"material":1}]}],"materials":[{"pbrMetallicRoughness":{"baseColorFactor":[1,1,1,1],"metallicFactor":0,"roughnessFactor":1,"baseColorTexture":{"index":0,"texCoord":0}},"alphaMode":"OPAQUE"},{"pbrMetallicRoughness":{"baseColorFactor":[1,1,1,1],"metallicFactor":0,"roughnessFactor":1,"baseColorTexture":{"index":1,"texCoord":0}},"alphaMode":"OPAQUE"}],"textures":[{"source":0,"sampler":0},{"source":1,"sampler":0}],"images":[{"uri":"1.png"},{"uri":"2.png"}],"samplers":[{"magFilter":9729,"wrapS":10497,"wrapT":10497}],"accessors":[{"bufferView":0,"byteOffset":0,"count":8,"componentType":5126,"type":"VEC3","min":[0,0.042998004704713821,0],"max":[0.039998002350330353,0.082998007535934448,0.039998002350330353]},{"bufferView":0,"byteOffset":96,"count":4,"componentType":5126,"type":"VEC3","min":[0,0.042998004704713821,0.039998002350330353],"max":[0.039998002350330353,0.082998007535934448,0.039998002350330353]},{"bufferView":0,"byteOffset":144,"count":4,"componentType":5126,"type":"VEC3","min":[0,0.042998004704713821,0],"max":[0.039998002350330353,0.082998007535934448,0]},{"bufferView":1,"byteOffset":0,"count":4,"componentType":5126,"type":"VEC2"},{"bufferView":1,"byteOffset":32,"count":4,"componentType":5126,"type":"VEC2"},{"bufferView":2,"byteOffset":0,"count":8,"componentType":5121,"type":"VEC4","normalized":true},{"bufferView":3,"byteOffset":0,"count":24,"componentType":5125,"type":"SCALAR"},{"bufferView":3,"byteOffset":96,"count":6,"componentType":5125,"type":"SCALAR"},{"bufferView":3,"byteOffset":120,"count":6,"componentType":5125,"type":"SCALAR"}],"bufferViews":[{"buffer":0,"byteOffset":0,"byteLength":192,"byteStride":12,"target":34962},{"buffer":0,"byteOffset":192,"byteLength":64,"byteStride":8,"target":34962},{"buffer":0,"byteOffset":256,"byteLength":32,"byteStride":4,"target":34962},{"buffer":0,"byteOffset":288,"byteLength":144,"target":34963}],"buffers":[{"byteLength":432,"uri":"vizitka.bin"}]}