{"asset":{"generator":"3D Builder","version":"2.0"},"scene":0,"scenes":[{"nodes":[0]}],"nodes":[{"children":[1,2,3,4,5,6,7,8,9,10,11,12,13,14,15,16,17,18,19,20,21,22,23]},{"mesh":0,"matrix":[1,0,0,0,0,-1.1920928955078125E-7,-0.99999988079071045,0,0,0.99999988079071045,-1.1920928955078125E-7,0,0,5.3823544732267692E-8,1.9378659033009171E-7,1]},{"mesh":1,"matrix":[1,0,0,0,0,-1.1920928955078125E-7,-0.99999988079071045,0,0,0.99999988079071045,-1.1920928955078125E-7,0,0,5.3823544732267692E-8,1.9378659033009171E-7,1]},{"mesh":2,"matrix":[1,0,0,0,0,-1.1920928955078125E-7,-0.99999988079071045,0,0,0.99999988079071045,-1.1920928955078125E-7,0,0,5.3823544732267692E-8,1.9378659033009171E-7,1]},{"mesh":3,"matrix":[1,0,0,0,0,-1.1920928955078125E-7,-0.99999988079071045,0,0,0.99999988079071045,-1.1920928955078125E-7,0,0,5.3823544732267692E-8,1.9378659033009171E-7,1]},{"mesh":4,"matrix":[1,0,0,0,0,-1.1920928955078125E-7,-0.99999988079071045,0,0,0.99999988079071045,-1.1920928955078125E-7,0,0,5.3823544732267692E-8,1.9378659033009171E-7,1]},{"mesh":5,"matrix":[1,0,0,0,0,-1.1920928955078125E-7,-0.99999988079071045,0,0,0.99999988079071045,-1.1920928955078125E-7,0,0,5.3823544732267692E-8,1.9378659033009171E-7,1]},{"mesh":6,"matrix":[1,0,0,0,0,-1.1920928955078125E-7,-0.99999988079071045,0,0,0.99999988079071045,-1.1920928955078125E-7,0,0,5.3823544732267692E-8,1.9378659033009171E-7,1]},{"mesh":7,"matrix":[1,0,0,0,0,-1.1920928955078125E-7,-0.99999988079071045,0,0,0.99999988079071045,-1.1920928955078125E-7,0,0,5.3823544732267692E-8,1.9378659033009171E-7,1]},{"mesh":8,"matrix":[1,0,0,0,0,-1.1920928955078125E-7,-0.99999988079071045,0,0,0.99999988079071045,-1.1920928955078125E-7,0,0,5.3823544732267692E-8,1.9378659033009171E-7,1]},{"mesh":9,"matrix":[1,0,0,0,0,-1.1920928955078125E-7,-0.99999988079071045,0,0,0.99999988079071045,-1.1920928955078125E-7,0,0,5.3823544732267692E-8,1.9378659033009171E-7,1]},{"mesh":10,"matrix":[1,0,0,0,0,-1.1920928955078125E-7,-0.99999988079071045,0,0,0.99999988079071045,-1.1920928955078125E-7,0,0,5.3823544732267692E-8,1.9378659033009171E-7,1]},{"mesh":11,"matrix":[1,0,0,0,0,-1.1920928955078125E-7,-0.99999988079071045,0,0,0.99999988079071045,-1.1920928955078125E-7,0,0,5.3823544732267692E-8,1.9378659033009171E-7,1]},{"mesh":12,"matrix":[1,0,0,0,0,-1.1920928955078125E-7,-0.99999988079071045,0,0,0.99999988079071045,-1.1920928955078125E-7,0,0,5.3823544732267692E-8,1.9378659033009171E-7,1]},{"mesh":13,"matrix":[1,0,0,0,0,-1.1920928955078125E-7,-0.99999988079071045,0,0,0.99999988079071045,-1.1920928955078125E-7,0,0,5.3823544732267692E-8,1.9378659033009171E-7,1]},{"mesh":14,"matrix":[1,0,0,0,0,-1.1920928955078125E-7,-0.99999988079071045,0,0,0.99999988079071045,-1.1920928955078125E-7,0,0,5.3823544732267692E-8,1.9378659033009171E-7,1]},{"mesh":15,"matrix":[1,0,0,0,0,-1.1920928955078125E-7,-0.99999988079071045,0,0,0.99999988079071045,-1.1920928955078125E-7,0,0,5.3823544732267692E-8,1.9378659033009171E-7,1]},{"mesh":16,"matrix":[1,0,0,0,0,-1.1920928955078125E-7,-0.99999988079071045,0,0,0.99999988079071045,-1.1920928955078125E-7,0,0,5.3823544732267692E-8,1.9378659033009171E-7,1]},{"mesh":17,"matrix":[1,0,0,0,0,-1.1920928955078125E-7,-0.99999988079071045,0,0,0.99999988079071045,-1.1920928955078125E-7,0,0,5.3823544732267692E-8,1.9378659033009171E-7,1]},{"mesh":18,"matrix":[1,0,0,0,0,-1.1920928955078125E-7,-0.99999988079071045,0,0,0.99999988079071045,-1.1920928955078125E-7,0,0,5.3823544732267692E-8,1.9378659033009171E-7,1]},{"mesh":19,"matrix":[1,0,0,0,0,-1.1920928955078125E-7,-0.99999988079071045,0,0,0.99999988079071045,-1.1920928955078125E-7,0,0,5.3823544732267692E-8,1.9378659033009171E-7,1]},{"mesh":20,"matrix":[1,0,0,0,0,-1.1920928955078125E-7,-0.99999988079071045,0,0,0.99999988079071045,-1.1920928955078125E-7,0,0,5.3823544732267692E-8,1.9378659033009171E-7,1]},{"mesh":21,"matrix":[1,0,0,0,0,-1.1920928955078125E-7,-0.99999988079071045,0,0,0.99999988079071045,-1.1920928955078125E-7,0,0,5.3823544732267692E-8,1.9378659033009171E-7,1]},{"mesh":22,"matrix":[1,0,0,0,0,-1.1920928955078125E-7,-0.99999988079071045,0,0,0.99999988079071045,-1.1920928955078125E-7,0,0,5.3823544732267692E-8,1.9378659033009171E-7,1]}],"meshes":[{"primitives":[{"attributes":{"POSITION":0,"TEXCOORD_0":1},"mode":4,"indices":2,"material":0}]},{"primitives":[{"attributes":{"POSITION":3,"TEXCOORD_0":4},"mode":4,"indices":5,"material":1}]},{"primitives":[{"attributes":{"POSITION":6,"TEXCOORD_0":7},"mode":4,"indices":8,"material":2}]},{"primitives":[{"attributes":{"POSITION":9,"TEXCOORD_0":10},"mode":4,"indices":11,"material":3}]},{"primitives":[{"attributes":{"POSITION":12,"TEXCOORD_0":13},"mode":4,"indices":14,"material":4}]},{"primitives":[{"attributes":{"POSITION":15,"TEXCOORD_0":16},"mode":4,"indices":17,"material":4}]},{"primitives":[{"attributes":{"POSITION":18,"TEXCOORD_0":19},"mode":4,"indices":20,"material":5}]},{"primitives":[{"attributes":{"POSITION":21,"TEXCOORD_0":22},"mode":4,"indices":23,"material":6}]},{"primitives":[{"attributes":{"POSITION":24,"TEXCOORD_0":25},"mode":4,"indices":26,"material":7}]},{"primitives":[{"attributes":{"POSITION":27,"TEXCOORD_0":28},"mode":4,"indices":29,"material":8}]},{"primitives":[{"attributes":{"POSITION":30,"TEXCOORD_0":31},"mode":4,"indices":32,"material":8}]},{"primitives":[{"attributes":{"POSITION":33,"TEXCOORD_0":34},"mode":4,"indices":35,"material":8}]},{"primitives":[{"attributes":{"POSITION":36,"TEXCOORD_0":37},"mode":4,"indices":38,"material":8}]},{"primitives":[{"attributes":{"POSITION":39,"TEXCOORD_0":40},"mode":4,"indices":41,"material":8}]},{"primitives":[{"attributes":{"POSITION":42,"TEXCOORD_0":43},"mode":4,"indices":44,"material":8}]},{"primitives":[{"attributes":{"POSITION":45,"TEXCOORD_0":46},"mode":4,"indices":47,"material":8}]},{"primitives":[{"attributes":{"POSITION":48,"TEXCOORD_0":49},"mode":4,"indices":50,"material":8}]},{"primitives":[{"attributes":{"POSITION":51,"TEXCOORD_0":52},"mode":4,"indices":53,"material":8}]},{"primitives":[{"attributes":{"POSITION":54,"TEXCOORD_0":55},"mode":4,"indices":56,"material":8}]},{"primitives":[{"attributes":{"POSITION":57,"TEXCOORD_0":58},"mode":4,"indices":59,"material":8}]},{"primitives":[{"attributes":{"POSITION":60,"TEXCOORD_0":61},"mode":4,"indices":62,"material":8}]},{"primitives":[{"attributes":{"POSITION":63,"TEXCOORD_0":64},"mode":4,"indices":65,"material":8}]},{"primitives":[{"attributes":{"POSITION":66,"TEXCOORD_0":67},"mode":4,"indices":68,"material":8}]}],"materials":[{"pbrMetallicRoughness":{"baseColorFactor":[1,1,1,1],"metallicFactor":0,"roughnessFactor":1,"baseColorTexture":{"index":0,"texCoord":0}},"alphaMode":"OPAQUE"},{"pbrMetallicRoughness":{"baseColorFactor":[1,1,1,1],"metallicFactor":0,"roughnessFactor":1,"baseColorTexture":{"index":1,"texCoord":0}},"alphaMode":"OPAQUE"},{"pbrMetallicRoughness":{"baseColorFactor":[1,1,1,1],"metallicFactor":0,"roughnessFactor":1,"baseColorTexture":{"index":2,"texCoord":0}},"alphaMode":"OPAQUE"},{"pbrMetallicRoughness":{"baseColorFactor":[1,1,1,1],"metallicFactor":0,"roughnessFactor":1,"baseColorTexture":{"index":3,"texCoord":0}},"alphaMode":"OPAQUE"},{"pbrMetallicRoughness":{"baseColorFactor":[1,1,1,1],"metallicFactor":0,"roughnessFactor":1,"baseColorTexture":{"index":4,"texCoord":0}},"alphaMode":"OPAQUE"},{"pbrMetallicRoughness":{"baseColorFactor":[1,1,1,1],"metallicFactor":0,"roughnessFactor":1,"baseColorTexture":{"index":5,"texCoord":0}},"alphaMode":"OPAQUE"},{"pbrMetallicRoughness":{"baseColorFactor":[1,1,1,1],"metallicFactor":0,"roughnessFactor":1,"baseColorTexture":{"index":6,"texCoord":0}},"alphaMode":"OPAQUE"},{"pbrMetallicRoughness":{"baseColorFactor":[1,1,1,1],"metallicFactor":0,"roughnessFactor":1,"baseColorTexture":{"index":7,"texCoord":0}},"alphaMode":"OPAQUE"},{"pbrMetallicRoughness":{"baseColorFactor":[1,1,1,1],"metallicFactor":0,"roughnessFactor":1,"baseColorTexture":{"index":8,"texCoord":0}},"alphaMode":"OPAQUE"}],"textures":[{"source":0,"sampler":0},{"source":1,"sampler":0},{"source":2,"sampler":0},{"source":3,"sampler":0},{"source":4,"sampler":0},{"source":5,"sampler":0},{"source":6,"sampler":0},{"source":7,"sampler":0},{"source":8,"sampler":0}],"images":[{"uri":"4.png"},{"uri":"10.png"},{"uri":"9.png"},{"uri":"5.png"},{"uri":"8.png"},{"uri":"7.png"},{"uri":"11.png"},{"uri":"6.png"},{"uri":"1.png"}],"samplers":[{"magFilter":9729,"wrapS":10497,"wrapT":10497}],"accessors":[{"bufferView":0,"byteOffset":0,"count":26,"componentType":5126,"type":"VEC3","min":[-4.1940670013427734,-1.9847104549407959,-1.5616926019512353E-14],"max":[0.25376492738723755,-0.942480206489563,0.11558501422405243]},{"bufferView":1,"byteOffset":0,"count":26,"componentType":5126,"type":"VEC2"},{"bufferView":2,"byteOffset":0,"count":144,"componentType":5125,"type":"SCALAR"},{"bufferView":3,"byteOffset":0,"count":26,"componentType":5126,"type":"VEC3","min":[2.6704819202423096,-3.4365100860595703,-2.7040581552324403E-14],"max":[5.9733266830444336,-2.5410728454589844,0.11558499932289124]},{"bufferView":4,"byteOffset":0,"count":26,"componentType":5126,"type":"VEC2"},{"bufferView":5,"byteOffset":0,"count":144,"componentType":5125,"type":"SCALAR"},{"bufferView":6,"byteOffset":0,"count":26,"componentType":5126,"type":"VEC3","min":[-4.0926179885864258,-3.3777928352355957,-2.6578555572783283E-14],"max":[-0.78977251052856445,-2.4823553562164307,0.11558501422405243]},{"bufferView":7,"byteOffset":0,"count":26,"componentType":5126,"type":"VEC2"},{"bufferView":8,"byteOffset":0,"count":144,"componentType":5125,"type":"SCALAR"},{"bufferView":9,"byteOffset":0,"count":296,"componentType":5126,"type":"VEC3","min":[-5.9733266830444336,-1.9264451265335083,5.3823494994276189E-8],"max":[-4.843019962310791,-0.88421499729156494,0.1155850738286972]},{"bufferView":10,"byteOffset":0,"count":296,"componentType":5126,"type":"VEC2"},{"bufferView":11,"byteOffset":0,"count":2304,"componentType":5125,"type":"SCALAR"},{"bufferView":12,"byteOffset":0,"count":200,"componentType":5126,"type":"VEC3","min":[-5.8627309799194336,-3.5466043949127197,5.3823480783421473E-8],"max":[-4.8204998970031738,-2.4896945953369141,0.1155850738286972]},{"bufferView":13,"byteOffset":0,"count":200,"componentType":5126,"type":"VEC2"},{"bufferView":14,"byteOffset":0,"count":1320,"componentType":5125,"type":"SCALAR"},{"bufferView":15,"byteOffset":0,"count":42,"componentType":5126,"type":"VEC3","min":[-5.0994067192077637,-3.6053216457366943,5.3823480783421473E-8],"max":[-4.747103214263916,-3.0621874332427979,0.1155850738286972]},{"bufferView":16,"byteOffset":0,"count":42,"componentType":5126,"type":"VEC2"},{"bufferView":17,"byteOffset":0,"count":252,"componentType":5125,"type":"SCALAR"},{"bufferView":18,"byteOffset":0,"count":34,"componentType":5126,"type":"VEC3","min":[1.1557387113571167,-1.9337847232818604,-5.3823523415985619E-8],"max":[2.2126493453979492,-0.87687528133392334,0.11558496206998825]},{"bufferView":19,"byteOffset":0,"count":34,"componentType":5126,"type":"VEC2"},{"bufferView":20,"byteOffset":0,"count":192,"componentType":5125,"type":"SCALAR"},{"bufferView":21,"byteOffset":0,"count":66,"componentType":5126,"type":"VEC3","min":[1.1557387113571167,-3.4365100860595703,5.3823480783421473E-8],"max":[2.1686115264892578,-2.4236381053924561,0.1155850738286972]},{"bufferView":22,"byteOffset":0,"count":66,"componentType":5126,"type":"VEC2"},{"bufferView":23,"byteOffset":0,"count":408,"componentType":5125,"type":"SCALAR"},{"bufferView":24,"byteOffset":0,"count":18,"componentType":5126,"type":"VEC3","min":[2.714519739151001,-2.1902205944061279,5.382349144156251E-8],"max":[5.019172191619873,-0.73697024583816528,0.1155850738286972]},{"bufferView":25,"byteOffset":0,"count":18,"componentType":5126,"type":"VEC2"},{"bufferView":26,"byteOffset":0,"count":96,"componentType":5125,"type":"SCALAR"},{"bufferView":27,"byteOffset":0,"count":364,"componentType":5126,"type":"VEC3","min":[-4.0926179885864258,-0.36834612488746643,0.16836100816726685],"max":[2.9828107357025146,3.6053221225738525,2.9999990463256836]},{"bufferView":28,"byteOffset":0,"count":364,"componentType":5126,"type":"VEC2"},{"bufferView":29,"byteOffset":0,"count":2436,"componentType":5125,"type":"SCALAR"},{"bufferView":30,"byteOffset":0,"count":10,"componentType":5126,"type":"VEC3","min":[1.6910313367843628,1.2345757484436035,1.1487107276916504],"max":[1.7497484683990479,1.6768070459365845,1.8205158710479736]},{"bufferView":31,"byteOffset":0,"count":10,"componentType":5126,"type":"VEC2"},{"bufferView":32,"byteOffset":0,"count":48,"componentType":5125,"type":"SCALAR"},{"bufferView":33,"byteOffset":0,"count":12,"componentType":5126,"type":"VEC3","min":[1.5442382097244263,1.2220529317855835,1.1410517692565918],"max":[1.6176345348358154,1.689329981803894,1.8281747102737427]},{"bufferView":34,"byteOffset":0,"count":12,"componentType":5126,"type":"VEC2"},{"bufferView":35,"byteOffset":0,"count":60,"componentType":5125,"type":"SCALAR"},{"bufferView":36,"byteOffset":0,"count":40,"componentType":5126,"type":"VEC3","min":[-3.3733313083648682,1.4725092649459839,1.2942312955856323],"max":[-2.8008382320404053,2.5158367156982422,2.333667516708374]},{"bufferView":37,"byteOffset":0,"count":40,"componentType":5126,"type":"VEC2"},{"bufferView":38,"byteOffset":0,"count":240,"componentType":5125,"type":"SCALAR"},{"bufferView":39,"byteOffset":0,"count":58,"componentType":5126,"type":"VEC3","min":[-2.7714798450469971,1.4725092649459839,1.2942312955856323],"max":[-2.1255900859832764,2.5158367156982422,2.333667516708374]},{"bufferView":40,"byteOffset":0,"count":58,"componentType":5126,"type":"VEC2"},{"bufferView":41,"byteOffset":0,"count":348,"componentType":5125,"type":"SCALAR"},{"bufferView":42,"byteOffset":0,"count":56,"componentType":5126,"type":"VEC3","min":[-2.0815520286560059,1.4725092649459839,1.2942312955856323],"max":[-1.5237381458282471,2.5158367156982422,2.333667516708374]},{"bufferView":43,"byteOffset":0,"count":56,"componentType":5126,"type":"VEC2"},{"bufferView":44,"byteOffset":0,"count":348,"componentType":5125,"type":"SCALAR"},{"bufferView":45,"byteOffset":0,"count":16,"componentType":5126,"type":"VEC3","min":[-1.4943795204162598,1.2220529317855835,1.1410517692565918],"max":[-1.274189829826355,1.701852560043335,1.8358335494995117]},{"bufferView":46,"byteOffset":0,"count":16,"componentType":5126,"type":"VEC2"},{"bufferView":47,"byteOffset":0,"count":84,"componentType":5125,"type":"SCALAR"},{"bufferView":48,"byteOffset":0,"count":10,"componentType":5126,"type":"VEC3","min":[-1.6705312728881836,1.2345757484436035,1.1487107276916504],"max":[-1.6118141412734985,1.6768070459365845,1.8205158710479736]},{"bufferView":49,"byteOffset":0,"count":10,"componentType":5126,"type":"VEC2"},{"bufferView":50,"byteOffset":0,"count":48,"componentType":5125,"type":"SCALAR"},{"bufferView":51,"byteOffset":0,"count":48,"componentType":5126,"type":"VEC3","min":[-3.3880107402801514,0.78375393152236938,0.87298738956451416],"max":[-3.0357072353363037,1.5515788793563843,1.7439258098602295]},{"bufferView":52,"byteOffset":0,"count":48,"componentType":5126,"type":"VEC2"},{"bufferView":53,"byteOffset":0,"count":288,"componentType":5125,"type":"SCALAR"},{"bufferView":54,"byteOffset":0,"count":52,"componentType":5126,"type":"VEC3","min":[-2.8742349147796631,0.78375393152236938,0.87298738956451416],"max":[-2.5219314098358154,1.5515788793563843,1.7439258098602295]},{"bufferView":55,"byteOffset":0,"count":52,"componentType":5126,"type":"VEC2"},{"bufferView":56,"byteOffset":0,"count":312,"componentType":5125,"type":"SCALAR"},{"bufferView":57,"byteOffset":0,"count":24,"componentType":5126,"type":"VEC3","min":[-1.8173246383666992,0.78375393152236938,0.87298738956451416],"max":[-1.5824555158615112,1.5390558242797852,1.7362669706344604]},{"bufferView":58,"byteOffset":0,"count":24,"componentType":5126,"type":"VEC2"},{"bufferView":59,"byteOffset":0,"count":132,"componentType":5125,"type":"SCALAR"},{"bufferView":60,"byteOffset":0,"count":22,"componentType":5126,"type":"VEC3","min":[-1.9054003953933716,0.78375393152236938,0.87298738956451416],"max":[-1.6998898983001709,1.5515788793563843,1.7439258098602295]},{"bufferView":61,"byteOffset":0,"count":22,"componentType":5126,"type":"VEC2"},{"bufferView":62,"byteOffset":0,"count":120,"componentType":5125,"type":"SCALAR"},{"bufferView":63,"byteOffset":0,"count":10,"componentType":5126,"type":"VEC3","min":[-2.9916691780090332,0.78375393152236938,0.87298738956451416],"max":[-2.9329521656036377,1.701852560043335,1.8358335494995117]},{"bufferView":64,"byteOffset":0,"count":10,"componentType":5126,"type":"VEC2"},{"bufferView":65,"byteOffset":0,"count":48,"componentType":5125,"type":"SCALAR"},{"bufferView":66,"byteOffset":0,"count":54,"componentType":5126,"type":"VEC3","min":[-2.477893590927124,0.78375393152236938,0.87298738956451416],"max":[-1.9347591400146484,1.701852560043335,1.8358335494995117]},{"bufferView":67,"byteOffset":0,"count":54,"componentType":5126,"type":"VEC2"},{"bufferView":68,"byteOffset":0,"count":312,"componentType":5125,"type":"SCALAR"}],"bufferViews":[{"buffer":0,"byteOffset":0,"byteLength":312,"byteStride":12,"target":34962},{"buffer":0,"byteOffset":312,"byteLength":208,"byteStride":8,"target":34962},{"buffer":0,"byteOffset":520,"byteLength":576,"target":34963},{"buffer":0,"byteOffset":1096,"byteLength":312,"byteStride":12,"target":34962},{"buffer":0,"byteOffset":1408,"byteLength":208,"byteStride":8,"target":34962},{"buffer":0,"byteOffset":1616,"byteLength":576,"target":34963},{"buffer":0,"byteOffset":2192,"byteLength":312,"byteStride":12,"target":34962},{"buffer":0,"byteOffset":2504,"byteLength":208,"byteStride":8,"target":34962},{"buffer":0,"byteOffset":2712,"byteLength":576,"target":34963},{"buffer":0,"byteOffset":3288,"byteLength":3552,"byteStride":12,"target":34962},{"buffer":0,"byteOffset":6840,"byteLength":2368,"byteStride":8,"target":34962},{"buffer":0,"byteOffset":9208,"byteLength":9216,"target":34963},{"buffer":0,"byteOffset":18424,"byteLength":2400,"byteStride":12,"target":34962},{"buffer":0,"byteOffset":20824,"byteLength":1600,"byteStride":8,"target":34962},{"buffer":0,"byteOffset":22424,"byteLength":5280,"target":34963},{"buffer":0,"byteOffset":27704,"byteLength":504,"byteStride":12,"target":34962},{"buffer":0,"byteOffset":28208,"byteLength":336,"byteStride":8,"target":34962},{"buffer":0,"byteOffset":28544,"byteLength":1008,"target":34963},{"buffer":0,"byteOffset":29552,"byteLength":408,"byteStride":12,"target":34962},{"buffer":0,"byteOffset":29960,"byteLength":272,"byteStride":8,"target":34962},{"buffer":0,"byteOffset":30232,"byteLength":768,"target":34963},{"buffer":0,"byteOffset":31000,"byteLength":792,"byteStride":12,"target":34962},{"buffer":0,"byteOffset":31792,"byteLength":528,"byteStride":8,"target":34962},{"buffer":0,"byteOffset":32320,"byteLength":1632,"target":34963},{"buffer":0,"byteOffset":33952,"byteLength":216,"byteStride":12,"target":34962},{"buffer":0,"byteOffset":34168,"byteLength":144,"byteStride":8,"target":34962},{"buffer":0,"byteOffset":34312,"byteLength":384,"target":34963},{"buffer":0,"byteOffset":34696,"byteLength":4368,"byteStride":12,"target":34962},{"buffer":0,"byteOffset":39064,"byteLength":2912,"byteStride":8,"target":34962},{"buffer":0,"byteOffset":41976,"byteLength":9744,"target":34963},{"buffer":0,"byteOffset":51720,"byteLength":120,"byteStride":12,"target":34962},{"buffer":0,"byteOffset":51840,"byteLength":80,"byteStride":8,"target":34962},{"buffer":0,"byteOffset":51920,"byteLength":192,"target":34963},{"buffer":0,"byteOffset":52112,"byteLength":144,"byteStride":12,"target":34962},{"buffer":0,"byteOffset":52256,"byteLength":96,"byteStride":8,"target":34962},{"buffer":0,"byteOffset":52352,"byteLength":240,"target":34963},{"buffer":0,"byteOffset":52592,"byteLength":480,"byteStride":12,"target":34962},{"buffer":0,"byteOffset":53072,"byteLength":320,"byteStride":8,"target":34962},{"buffer":0,"byteOffset":53392,"byteLength":960,"target":34963},{"buffer":0,"byteOffset":54352,"byteLength":696,"byteStride":12,"target":34962},{"buffer":0,"byteOffset":55048,"byteLength":464,"byteStride":8,"target":34962},{"buffer":0,"byteOffset":55512,"byteLength":1392,"target":34963},{"buffer":0,"byteOffset":56904,"byteLength":672,"byteStride":12,"target":34962},{"buffer":0,"byteOffset":57576,"byteLength":448,"byteStride":8,"target":34962},{"buffer":0,"byteOffset":58024,"byteLength":1392,"target":34963},{"buffer":0,"byteOffset":59416,"byteLength":192,"byteStride":12,"target":34962},{"buffer":0,"byteOffset":59608,"byteLength":128,"byteStride":8,"target":34962},{"buffer":0,"byteOffset":59736,"byteLength":336,"target":34963},{"buffer":0,"byteOffset":60072,"byteLength":120,"byteStride":12,"target":34962},{"buffer":0,"byteOffset":60192,"byteLength":80,"byteStride":8,"target":34962},{"buffer":0,"byteOffset":60272,"byteLength":192,"target":34963},{"buffer":0,"byteOffset":60464,"byteLength":576,"byteStride":12,"target":34962},{"buffer":0,"byteOffset":61040,"byteLength":384,"byteStride":8,"target":34962},{"buffer":0,"byteOffset":61424,"byteLength":1152,"target":34963},{"buffer":0,"byteOffset":62576,"byteLength":624,"byteStride":12,"target":34962},{"buffer":0,"byteOffset":63200,"byteLength":416,"byteStride":8,"target":34962},{"buffer":0,"byteOffset":63616,"byteLength":1248,"target":34963},{"buffer":0,"byteOffset":64864,"byteLength":288,"byteStride":12,"target":34962},{"buffer":0,"byteOffset":65152,"byteLength":192,"byteStride":8,"target":34962},{"buffer":0,"byteOffset":65344,"byteLength":528,"target":34963},{"buffer":0,"byteOffset":65872,"byteLength":264,"byteStride":12,"target":34962},{"buffer":0,"byteOffset":66136,"byteLength":176,"byteStride":8,"target":34962},{"buffer":0,"byteOffset":66312,"byteLength":480,"target":34963},{"buffer":0,"byteOffset":66792,"byteLength":120,"byteStride":12,"target":34962},{"buffer":0,"byteOffset":66912,"byteLength":80,"byteStride":8,"target":34962},{"buffer":0,"byteOffset":66992,"byteLength":192,"target":34963},{"buffer":0,"byteOffset":67184,"byteLength":648,"byteStride":12,"target":34962},{"buffer":0,"byteOffset":67832,"byteLength":432,"byteStride":8,"target":34962},{"buffer":0,"byteOffset":68264,"byteLength":1248,"target":34963}],"buffers":[{"byteLength":69512,"uri":"scene.bin"}]}