{"asset":{"generator":"3D Builder","version":"2.0"},"scene":0,"scenes":[{"nodes":[0,1]}],"nodes":[{"mesh":0,"matrix":[1,0,0,0,0,-1.1920928955078125E-7,-0.99999988079071045,0,0,0.15378932654857635,-1.8333118134705728E-8,0,0,0.008999999612569809,-1.0728836707940559E-9,1]},{"children":[2,3,4]},{"mesh":1,"matrix":[1,0,0,0,0,-0.9999958872795105,-5.9604410296287824E-8,0,0,-4.7683721504654386E-7,-0.9999958872795105,0,0.048386998474597931,0.021572936326265335,-0.026976192370057106,1]},{"mesh":2,"matrix":[1,0,0,0,0,-0.9999958872795105,-5.9604410296287824E-8,0,0,-4.7683721504654386E-7,-0.9999958872795105,0,0.048386998474597931,0.021572936326265335,-0.026976192370057106,1]},{"mesh":3,"matrix":[1,0,0,0,0,-0.9999958872795105,-5.9604410296287824E-8,0,0,-4.7683721504654386E-7,-0.9999958872795105,0,0.048386998474597931,0.021572936326265335,-0.026976192370057106,1]}],"meshes":[{"primitives":[{"attributes":{"POSITION":0,"TEXCOORD_0":1},"mode":4,"indices":2,"material":0}]},{"primitives":[{"attributes":{"POSITION":3,"TEXCOORD_0":4},"mode":4,"indices":5,"material":1}]},{"primitives":[{"attributes":{"POSITION":6,"TEXCOORD_0":7},"mode":4,"indices":8,"material":1}]},{"primitives":[{"attributes":{"POSITION":9,"TEXCOORD_0":10},"mode":4,"indices":11,"material":1}]}],"materials":[{"pbrMetallicRoughness":{"baseColorFactor":[1,1,1,1],"metallicFactor":0,"roughnessFactor":1,"baseColorTexture":{"index":0,"texCoord":0}},"alphaMode":"OPAQUE"},{"pbrMetallicRoughness":{"baseColorFactor":[1,1,1,1],"metallicFactor":1,"roughnessFactor":1,"baseColorTexture":{"index":1,"texCoord":0},"metallicRoughnessTexture":{"index":2,"texCoord":0}},"alphaMode":"OPAQUE"}],"textures":[{"source":0,"sampler":0},{"source":1,"sampler":0},{"source":2,"sampler":0}],"images":[{"uri":"15.png"},{"uri":"1947340851_2048x2048_373769621576435952.png"},{"uri":"1164453979_512x512_10351822693837421737.png"}],"samplers":[{"magFilter":9729,"wrapS":10497,"wrapT":10497}],"accessors":[{"bufferView":0,"byteOffset":0,"count":26,"componentType":5126,"type":"VEC3","min":[0,0,0],"max":[0.096773996949195862,0.022605998441576958,0.01300480030477047]},{"bufferView":1,"byteOffset":0,"count":26,"componentType":5126,"type":"VEC2"},{"bufferView":2,"byteOffset":0,"count":144,"componentType":5125,"type":"SCALAR"},{"bufferView":3,"byteOffset":0,"count":2520,"componentType":5126,"type":"VEC3","min":[-0.024665096774697304,-0.0020534994546324015,9.6839838079176843E-5],"max":[0.024665096774697304,0.00078168325126171112,0.044514551758766174]},{"bufferView":4,"byteOffset":0,"count":2520,"componentType":5126,"type":"VEC2"},{"bufferView":5,"byteOffset":0,"count":12960,"componentType":5125,"type":"SCALAR"},{"bufferView":6,"byteOffset":0,"count":777,"componentType":5126,"type":"VEC3","min":[-0.0034097421448677778,-0.0020389810670167208,0.005051732063293457],"max":[0.0040322816930711269,0.000540801789611578,0.012754675000905991]},{"bufferView":7,"byteOffset":0,"count":777,"componentType":5126,"type":"VEC2"},{"bufferView":8,"byteOffset":0,"count":4032,"componentType":5125,"type":"SCALAR"},{"bufferView":9,"byteOffset":0,"count":298,"componentType":5126,"type":"VEC3","min":[-0.0036691422574222088,-0.0020423121750354767,0.01403429452329874],"max":[0.0042676744051277637,0.00060019368538632989,0.032518673688173294]},{"bufferView":10,"byteOffset":0,"count":298,"componentType":5126,"type":"VEC2"},{"bufferView":11,"byteOffset":0,"count":1428,"componentType":5125,"type":"SCALAR"}],"bufferViews":[{"buffer":0,"byteOffset":0,"byteLength":312,"byteStride":12,"target":34962},{"buffer":0,"byteOffset":312,"byteLength":208,"byteStride":8,"target":34962},{"buffer":0,"byteOffset":520,"byteLength":576,"target":34963},{"buffer":0,"byteOffset":1096,"byteLength":30240,"byteStride":12,"target":34962},{"buffer":0,"byteOffset":31336,"byteLength":20160,"byteStride":8,"target":34962},{"buffer":0,"byteOffset":51496,"byteLength":51840,"target":34963},{"buffer":0,"byteOffset":103336,"byteLength":9324,"byteStride":12,"target":34962},{"buffer":0,"byteOffset":112660,"byteLength":6216,"byteStride":8,"target":34962},{"buffer":0,"byteOffset":118876,"byteLength":16128,"target":34963},{"buffer":0,"byteOffset":135004,"byteLength":3576,"byteStride":12,"target":34962},{"buffer":0,"byteOffset":138580,"byteLength":2384,"byteStride":8,"target":34962},{"buffer":0,"byteOffset":140964,"byteLength":5712,"target":34963}],"buffers":[{"byteLength":146676,"uri":"reklamacija.bin"}]}