{"asset":{"generator":"3D Builder","version":"2.0"},"scene":0,"scenes":[{"nodes":[0,1,2,3,4,5,6,7,8,9,10,11,12,13,14,15,16,17,18,19,20,21,22]}],"nodes":[{"mesh":0,"matrix":[57.792564392089844,0,0,0,0,-6.8894105424988084E-6,-57.792556762695313,0,0,57.792556762695313,-6.8894105424988084E-6,0,-9.68932880596185E-8,-5.0052521941576847E-14,-4.1987092913586821E-7,1]},{"mesh":1,"matrix":[57.792572021484375,0,0,0,0,-6.88941145199351E-6,-57.792564392089844,0,0,57.792564392089844,-6.88941145199351E-6,0,-9.6893273848763783E-8,-5.0052521941576847E-14,-4.1987092913586821E-7,1]},{"mesh":2,"matrix":[57.792572021484375,0,0,0,0,-6.88941145199351E-6,-57.792564392089844,0,0,57.792564392089844,-6.88941145199351E-6,0,-9.6893273848763783E-8,-5.0052521941576847E-14,-4.1987092913586821E-7,1]},{"mesh":3,"matrix":[57.792572021484375,0,0,0,0,-6.88941145199351E-6,-57.792564392089844,0,0,57.792564392089844,-6.88941145199351E-6,0,-9.6893273848763783E-8,-5.0052521941576847E-14,-4.1987092913586821E-7,1]},{"mesh":4,"matrix":[57.792572021484375,0,0,0,0,-6.88941145199351E-6,-57.792564392089844,0,0,57.792564392089844,-6.88941145199351E-6,0,-9.6893273848763783E-8,-5.0052521941576847E-14,-4.1987092913586821E-7,1]},{"mesh":5,"matrix":[57.792572021484375,0,0,0,0,-6.88941145199351E-6,-57.792564392089844,0,0,57.792564392089844,-6.88941145199351E-6,0,-9.6893273848763783E-8,-5.0052521941576847E-14,-4.1987092913586821E-7,1]},{"mesh":6,"matrix":[57.792572021484375,0,0,0,0,-6.88941145199351E-6,-57.792564392089844,0,0,57.792564392089844,-6.88941145199351E-6,0,-9.6893273848763783E-8,-5.0052521941576847E-14,-4.1987092913586821E-7,1]},{"mesh":7,"matrix":[57.792572021484375,0,0,0,0,-6.88941145199351E-6,-57.792564392089844,0,0,57.792564392089844,-6.88941145199351E-6,0,-9.6893273848763783E-8,-5.0052521941576847E-14,-4.1987092913586821E-7,1]},{"mesh":8,"matrix":[57.792572021484375,0,0,0,0,-6.88941145199351E-6,-57.792564392089844,0,0,57.792564392089844,-6.88941145199351E-6,0,-9.6893273848763783E-8,-5.0052521941576847E-14,-4.1987092913586821E-7,1]},{"mesh":9,"matrix":[57.792572021484375,0,0,0,0,-6.88941145199351E-6,-57.792564392089844,0,0,57.792564392089844,-6.88941145199351E-6,0,-9.6893273848763783E-8,-5.0052521941576847E-14,-4.1987092913586821E-7,1]},{"mesh":10,"matrix":[57.792572021484375,0,0,0,0,-6.88941145199351E-6,-57.792564392089844,0,0,57.792564392089844,-6.88941145199351E-6,0,-9.6893273848763783E-8,-5.0052521941576847E-14,-4.1987092913586821E-7,1]},{"mesh":11,"matrix":[57.792572021484375,0,0,0,0,-6.88941145199351E-6,-57.792564392089844,0,0,57.792564392089844,-6.88941145199351E-6,0,-9.6893273848763783E-8,-5.0052521941576847E-14,-4.1987092913586821E-7,1]},{"mesh":12,"matrix":[57.792572021484375,0,0,0,0,-6.88941145199351E-6,-57.792564392089844,0,0,57.792564392089844,-6.88941145199351E-6,0,-9.6893273848763783E-8,-5.0052521941576847E-14,-4.1987092913586821E-7,1]},{"mesh":13,"matrix":[57.792572021484375,0,0,0,0,-6.88941145199351E-6,-57.792564392089844,0,0,57.792564392089844,-6.88941145199351E-6,0,-9.6893273848763783E-8,-5.0052521941576847E-14,-4.1987092913586821E-7,1]},{"mesh":14,"matrix":[57.792572021484375,0,0,0,0,-6.88941145199351E-6,-57.792564392089844,0,0,57.792564392089844,-6.88941145199351E-6,0,-9.6893273848763783E-8,-5.0052521941576847E-14,-4.1987092913586821E-7,1]},{"mesh":15,"matrix":[57.792572021484375,0,0,0,0,-6.88941145199351E-6,-57.792564392089844,0,0,57.792564392089844,-6.88941145199351E-6,0,-9.6893273848763783E-8,-5.0052521941576847E-14,-4.1987092913586821E-7,1]},{"mesh":16,"matrix":[57.792572021484375,0,0,0,0,-6.88941145199351E-6,-57.792564392089844,0,0,57.792564392089844,-6.88941145199351E-6,0,-9.6893273848763783E-8,-5.0052521941576847E-14,-4.1987092913586821E-7,1]},{"mesh":17,"matrix":[57.792572021484375,0,0,0,0,-6.88941145199351E-6,-57.792564392089844,0,0,57.792564392089844,-6.88941145199351E-6,0,-9.6893273848763783E-8,-5.0052521941576847E-14,-4.1987092913586821E-7,1]},{"mesh":18,"matrix":[57.792572021484375,0,0,0,0,-6.88941145199351E-6,-57.792564392089844,0,0,57.792564392089844,-6.88941145199351E-6,0,-9.6893273848763783E-8,-5.0052521941576847E-14,-4.1987092913586821E-7,1]},{"mesh":19,"matrix":[57.792572021484375,0,0,0,0,-6.88941145199351E-6,-57.792564392089844,0,0,57.792564392089844,-6.88941145199351E-6,0,-9.6893273848763783E-8,-5.0052521941576847E-14,-4.1987092913586821E-7,1]},{"mesh":20,"matrix":[57.792572021484375,0,0,0,0,-6.88941145199351E-6,-57.792564392089844,0,0,57.792564392089844,-6.88941145199351E-6,0,-9.6893273848763783E-8,-5.0052521941576847E-14,-4.1987092913586821E-7,1]},{"mesh":21,"matrix":[57.792572021484375,0,0,0,0,-6.88941145199351E-6,-57.792564392089844,0,0,57.792564392089844,-6.88941145199351E-6,0,-9.6893273848763783E-8,-5.0052521941576847E-14,-4.1987092913586821E-7,1]},{"mesh":22,"matrix":[57.792572021484375,0,0,0,0,-6.88941145199351E-6,-57.792564392089844,0,0,57.792564392089844,-6.88941145199351E-6,0,-9.6893273848763783E-8,-5.0052521941576847E-14,-4.1987092913586821E-7,1]}],"meshes":[{"primitives":[{"attributes":{"POSITION":0,"TEXCOORD_0":1},"mode":4,"indices":2,"material":0}]},{"primitives":[{"attributes":{"POSITION":3,"TEXCOORD_0":4},"mode":4,"indices":5,"material":1}]},{"primitives":[{"attributes":{"POSITION":6,"TEXCOORD_0":7},"mode":4,"indices":8,"material":2}]},{"primitives":[{"attributes":{"POSITION":9,"TEXCOORD_0":10},"mode":4,"indices":11,"material":3}]},{"primitives":[{"attributes":{"POSITION":12,"TEXCOORD_0":13},"mode":4,"indices":14,"material":3}]},{"primitives":[{"attributes":{"POSITION":15,"TEXCOORD_0":16},"mode":4,"indices":17,"material":4}]},{"primitives":[{"attributes":{"POSITION":18,"TEXCOORD_0":19},"mode":4,"indices":20,"material":5}]},{"primitives":[{"attributes":{"POSITION":21,"TEXCOORD_0":22},"mode":4,"indices":23,"material":6}]},{"primitives":[{"attributes":{"POSITION":24,"TEXCOORD_0":25},"mode":4,"indices":26,"material":7}]},{"primitives":[{"attributes":{"POSITION":27,"TEXCOORD_0":28},"mode":4,"indices":29,"material":8}]},{"primitives":[{"attributes":{"POSITION":30,"TEXCOORD_0":31},"mode":4,"indices":32,"material":8}]},{"primitives":[{"attributes":{"POSITION":33,"TEXCOORD_0":34},"mode":4,"indices":35,"material":8}]},{"primitives":[{"attributes":{"POSITION":36,"TEXCOORD_0":37},"mode":4,"indices":38,"material":8}]},{"primitives":[{"attributes":{"POSITION":39,"TEXCOORD_0":40},"mode":4,"indices":41,"material":8}]},{"primitives":[{"attributes":{"POSITION":42,"TEXCOORD_0":43},"mode":4,"indices":44,"material":8}]},{"primitives":[{"attributes":{"POSITION":45,"TEXCOORD_0":46},"mode":4,"indices":47,"material":8}]},{"primitives":[{"attributes":{"POSITION":48,"TEXCOORD_0":49},"mode":4,"indices":50,"material":8}]},{"primitives":[{"attributes":{"POSITION":51,"TEXCOORD_0":52},"mode":4,"indices":53,"material":8}]},{"primitives":[{"attributes":{"POSITION":54,"TEXCOORD_0":55},"mode":4,"indices":56,"material":8}]},{"primitives":[{"attributes":{"POSITION":57,"TEXCOORD_0":58},"mode":4,"indices":59,"material":8}]},{"primitives":[{"attributes":{"POSITION":60,"TEXCOORD_0":61},"mode":4,"indices":62,"material":8}]},{"primitives":[{"attributes":{"POSITION":63,"TEXCOORD_0":64},"mode":4,"indices":65,"material":8}]},{"primitives":[{"attributes":{"POSITION":66,"TEXCOORD_0":67},"mode":4,"indices":68,"material":8}]}],"materials":[{"pbrMetallicRoughness":{"baseColorFactor":[1,1,1,1],"metallicFactor":0,"roughnessFactor":1,"baseColorTexture":{"index":0,"texCoord":0}},"alphaMode":"OPAQUE"},{"pbrMetallicRoughness":{"baseColorFactor":[1,1,1,1],"metallicFactor":0,"roughnessFactor":1,"baseColorTexture":{"index":1,"texCoord":0}},"alphaMode":"OPAQUE"},{"pbrMetallicRoughness":{"baseColorFactor":[1,1,1,1],"metallicFactor":0,"roughnessFactor":1,"baseColorTexture":{"index":2,"texCoord":0}},"alphaMode":"OPAQUE"},{"pbrMetallicRoughness":{"baseColorFactor":[1,1,1,1],"metallicFactor":0,"roughnessFactor":1,"baseColorTexture":{"index":3,"texCoord":0}},"alphaMode":"OPAQUE"},{"pbrMetallicRoughness":{"baseColorFactor":[1,1,1,1],"metallicFactor":0,"roughnessFactor":1,"baseColorTexture":{"index":4,"texCoord":0}},"alphaMode":"OPAQUE"},{"pbrMetallicRoughness":{"baseColorFactor":[1,1,1,1],"metallicFactor":0,"roughnessFactor":1,"baseColorTexture":{"index":5,"texCoord":0}},"alphaMode":"OPAQUE"},{"pbrMetallicRoughness":{"baseColorFactor":[1,1,1,1],"metallicFactor":0,"roughnessFactor":1,"baseColorTexture":{"index":6,"texCoord":0}},"alphaMode":"OPAQUE"},{"pbrMetallicRoughness":{"baseColorFactor":[1,1,1,1],"metallicFactor":0,"roughnessFactor":1,"baseColorTexture":{"index":7,"texCoord":0}},"alphaMode":"OPAQUE"},{"pbrMetallicRoughness":{"baseColorFactor":[1,1,1,1],"metallicFactor":0,"roughnessFactor":1,"baseColorTexture":{"index":8,"texCoord":0}},"alphaMode":"OPAQUE"}],"textures":[{"source":0,"sampler":0},{"source":1,"sampler":0},{"source":2,"sampler":0},{"source":3,"sampler":0},{"source":4,"sampler":0},{"source":5,"sampler":0},{"source":6,"sampler":0},{"source":7,"sampler":0},{"source":8,"sampler":0}],"images":[{"uri":"10.png"},{"uri":"9.png"},{"uri":"5.png"},{"uri":"8.png"},{"uri":"7.png"},{"uri":"11.png"},{"uri":"6.png"},{"uri":"4.png"},{"uri":"1.png"}],"samplers":[{"magFilter":9729,"wrapS":10497,"wrapT":10497}],"accessors":[{"bufferView":0,"byteOffset":0,"count":26,"componentType":5126,"type":"VEC3","min":[0.046208053827285767,-0.059462867677211761,0],"max":[0.10335804522037506,-0.04396887868642807,0.001999998465180397]},{"bufferView":1,"byteOffset":0,"count":26,"componentType":5126,"type":"VEC2"},{"bufferView":2,"byteOffset":0,"count":144,"componentType":5125,"type":"SCALAR"},{"bufferView":3,"byteOffset":0,"count":26,"componentType":5126,"type":"VEC3","min":[-0.070815637707710266,-0.058446861803531647,0],"max":[-0.013665638864040375,-0.042952865362167358,0.001999998465180397]},{"bufferView":4,"byteOffset":0,"count":26,"componentType":5126,"type":"VEC2"},{"bufferView":5,"byteOffset":0,"count":144,"componentType":5125,"type":"SCALAR"},{"bufferView":6,"byteOffset":0,"count":296,"componentType":5126,"type":"VEC3","min":[-0.10335803776979446,-0.033333804458379745,9.3132257461547852E-10],"max":[-0.083800040185451508,-0.015299815684556961,0.0019999993965029716]},{"bufferView":7,"byteOffset":0,"count":296,"componentType":5126,"type":"VEC2"},{"bufferView":8,"byteOffset":0,"count":2304,"componentType":5125,"type":"SCALAR"},{"bufferView":9,"byteOffset":0,"count":200,"componentType":5126,"type":"VEC3","min":[-0.10144437104463577,-0.061367854475975037,9.3132257461547852E-10],"max":[-0.0834103673696518,-0.043079860508441925,0.0019999993965029716]},{"bufferView":10,"byteOffset":0,"count":200,"componentType":5126,"type":"VEC2"},{"bufferView":11,"byteOffset":0,"count":1320,"componentType":5125,"type":"SCALAR"},{"bufferView":12,"byteOffset":0,"count":42,"componentType":5126,"type":"VEC3","min":[-0.08823636919260025,-0.062383852899074554,9.3132257461547852E-10],"max":[-0.082140371203422546,-0.05298585444688797,0.0019999993965029716]},{"bufferView":13,"byteOffset":0,"count":42,"componentType":5126,"type":"VEC2"},{"bufferView":14,"byteOffset":0,"count":252,"componentType":5125,"type":"SCALAR"},{"bufferView":15,"byteOffset":0,"count":34,"componentType":5126,"type":"VEC3","min":[0.019998051226139069,-0.033460803329944611,-9.3132257461547852E-10],"max":[0.038286052644252777,-0.015172814950346947,0.0019999975338578224]},{"bufferView":16,"byteOffset":0,"count":34,"componentType":5126,"type":"VEC2"},{"bufferView":17,"byteOffset":0,"count":192,"componentType":5125,"type":"SCALAR"},{"bufferView":18,"byteOffset":0,"count":66,"componentType":5126,"type":"VEC3","min":[0.019998051226139069,-0.059462860226631165,9.3132257461547852E-10],"max":[0.03752405196428299,-0.041936866939067841,0.0019999993965029716]},{"bufferView":19,"byteOffset":0,"count":66,"componentType":5126,"type":"VEC2"},{"bufferView":20,"byteOffset":0,"count":408,"componentType":5125,"type":"SCALAR"},{"bufferView":21,"byteOffset":0,"count":18,"componentType":5126,"type":"VEC3","min":[0.046970047056674957,-0.0378979817032814,9.3132257461547852E-10],"max":[0.086848050355911255,-0.012752000242471695,0.0019999993965029716]},{"bufferView":22,"byteOffset":0,"count":18,"componentType":5126,"type":"VEC2"},{"bufferView":23,"byteOffset":0,"count":96,"componentType":5125,"type":"SCALAR"},{"bufferView":24,"byteOffset":0,"count":26,"componentType":5126,"type":"VEC3","min":[-0.0725710391998291,-0.034341983497142792,0],"max":[0.0043909624218940735,-0.016307994723320007,0.001999998465180397]},{"bufferView":25,"byteOffset":0,"count":26,"componentType":5126,"type":"VEC2"},{"bufferView":26,"byteOffset":0,"count":144,"componentType":5125,"type":"SCALAR"},{"bufferView":27,"byteOffset":0,"count":364,"componentType":5126,"type":"VEC3","min":[-0.070815637707710266,-0.0063735987059772015,0.0029131956398487091],"max":[0.051612354815006256,0.062383845448493958,0.051909785717725754]},{"bufferView":28,"byteOffset":0,"count":364,"componentType":5126,"type":"VEC2"},{"bufferView":29,"byteOffset":0,"count":2436,"componentType":5125,"type":"SCALAR"},{"bufferView":30,"byteOffset":0,"count":10,"componentType":5126,"type":"VEC3","min":[0.029260359704494476,0.021362185478210449,0.019876448437571526],"max":[0.030276358127593994,0.029014231637120247,0.031500872224569321]},{"bufferView":31,"byteOffset":0,"count":10,"componentType":5126,"type":"VEC2"},{"bufferView":32,"byteOffset":0,"count":48,"componentType":5125,"type":"SCALAR"},{"bufferView":33,"byteOffset":0,"count":12,"componentType":5126,"type":"VEC3","min":[0.026720359921455383,0.021145500242710114,0.019743923097848892],"max":[0.027990356087684631,0.029230920597910881,0.031633395701646805]},{"bufferView":34,"byteOffset":0,"count":12,"componentType":5126,"type":"VEC2"},{"bufferView":35,"byteOffset":0,"count":60,"componentType":5125,"type":"SCALAR"},{"bufferView":36,"byteOffset":0,"count":40,"componentType":5126,"type":"VEC3","min":[-0.058369636535644531,0.025479214265942574,0.022394429892301559],"max":[-0.048463638871908188,0.043532185256481171,0.040380071848630905]},{"bufferView":37,"byteOffset":0,"count":40,"componentType":5126,"type":"VEC2"},{"bufferView":38,"byteOffset":0,"count":240,"componentType":5125,"type":"SCALAR"},{"bufferView":39,"byteOffset":0,"count":58,"componentType":5126,"type":"VEC3","min":[-0.047955639660358429,0.025479214265942574,0.022394429892301559],"max":[-0.036779642105102539,0.043532185256481171,0.040380071848630905]},{"bufferView":40,"byteOffset":0,"count":58,"componentType":5126,"type":"VEC2"},{"bufferView":41,"byteOffset":0,"count":348,"componentType":5125,"type":"SCALAR"},{"bufferView":42,"byteOffset":0,"count":56,"componentType":5126,"type":"VEC3","min":[-0.036017637699842453,0.025479214265942574,0.022394429892301559],"max":[-0.02636563777923584,0.043532185256481171,0.040380071848630905]},{"bufferView":43,"byteOffset":0,"count":56,"componentType":5126,"type":"VEC2"},{"bufferView":44,"byteOffset":0,"count":348,"componentType":5125,"type":"SCALAR"},{"bufferView":45,"byteOffset":0,"count":16,"componentType":5126,"type":"VEC3","min":[-0.025857638567686081,0.021145500242710114,0.019743923097848892],"max":[-0.022047638893127441,0.029447602108120918,0.031765919178724289]},{"bufferView":46,"byteOffset":0,"count":16,"componentType":5126,"type":"VEC2"},{"bufferView":47,"byteOffset":0,"count":84,"componentType":5125,"type":"SCALAR"},{"bufferView":48,"byteOffset":0,"count":10,"componentType":5126,"type":"VEC3","min":[-0.028905637562274933,0.021362185478210449,0.019876448437571526],"max":[-0.027889639139175415,0.029014231637120247,0.031500872224569321]},{"bufferView":49,"byteOffset":0,"count":10,"componentType":5126,"type":"VEC2"},{"bufferView":50,"byteOffset":0,"count":48,"componentType":5125,"type":"SCALAR"},{"bufferView":51,"byteOffset":0,"count":48,"componentType":5126,"type":"VEC3","min":[-0.05862363800406456,0.013561496511101723,0.015105534344911575],"max":[-0.052527636289596558,0.026847375556826591,0.030175615102052689]},{"bufferView":52,"byteOffset":0,"count":48,"componentType":5126,"type":"VEC2"},{"bufferView":53,"byteOffset":0,"count":288,"componentType":5125,"type":"SCALAR"},{"bufferView":54,"byteOffset":0,"count":52,"componentType":5126,"type":"VEC3","min":[-0.049733638763427734,0.013561496511101723,0.015105534344911575],"max":[-0.043637640774250031,0.026847375556826591,0.030175615102052689]},{"bufferView":55,"byteOffset":0,"count":52,"componentType":5126,"type":"VEC2"},{"bufferView":56,"byteOffset":0,"count":312,"componentType":5125,"type":"SCALAR"},{"bufferView":57,"byteOffset":0,"count":24,"componentType":5126,"type":"VEC3","min":[-0.031445641070604324,0.013561496511101723,0.015105534344911575],"max":[-0.027381639927625656,0.026630686596035957,0.030043091624975204]},{"bufferView":58,"byteOffset":0,"count":24,"componentType":5126,"type":"VEC2"},{"bufferView":59,"byteOffset":0,"count":132,"componentType":5125,"type":"SCALAR"},{"bufferView":60,"byteOffset":0,"count":22,"componentType":5126,"type":"VEC3","min":[-0.0329696387052536,0.013561496511101723,0.015105534344911575],"max":[-0.029413636773824692,0.026847375556826591,0.030175615102052689]},{"bufferView":61,"byteOffset":0,"count":22,"componentType":5126,"type":"VEC2"},{"bufferView":62,"byteOffset":0,"count":120,"componentType":5125,"type":"SCALAR"},{"bufferView":63,"byteOffset":0,"count":10,"componentType":5126,"type":"VEC3","min":[-0.05176563560962677,0.013561496511101723,0.015105534344911575],"max":[-0.050749637186527252,0.029447602108120918,0.031765919178724289]},{"bufferView":64,"byteOffset":0,"count":10,"componentType":5126,"type":"VEC2"},{"bufferView":65,"byteOffset":0,"count":48,"componentType":5125,"type":"SCALAR"},{"bufferView":66,"byteOffset":0,"count":54,"componentType":5126,"type":"VEC3","min":[-0.042875640094280243,0.013561496511101723,0.015105534344911575],"max":[-0.033477641642093658,0.029447602108120918,0.031765919178724289]},{"bufferView":67,"byteOffset":0,"count":54,"componentType":5126,"type":"VEC2"},{"bufferView":68,"byteOffset":0,"count":312,"componentType":5125,"type":"SCALAR"}],"bufferViews":[{"buffer":0,"byteOffset":0,"byteLength":312,"byteStride":12,"target":34962},{"buffer":0,"byteOffset":312,"byteLength":208,"byteStride":8,"target":34962},{"buffer":0,"byteOffset":520,"byteLength":576,"target":34963},{"buffer":0,"byteOffset":1096,"byteLength":312,"byteStride":12,"target":34962},{"buffer":0,"byteOffset":1408,"byteLength":208,"byteStride":8,"target":34962},{"buffer":0,"byteOffset":1616,"byteLength":576,"target":34963},{"buffer":0,"byteOffset":2192,"byteLength":3552,"byteStride":12,"target":34962},{"buffer":0,"byteOffset":5744,"byteLength":2368,"byteStride":8,"target":34962},{"buffer":0,"byteOffset":8112,"byteLength":9216,"target":34963},{"buffer":0,"byteOffset":17328,"byteLength":2400,"byteStride":12,"target":34962},{"buffer":0,"byteOffset":19728,"byteLength":1600,"byteStride":8,"target":34962},{"buffer":0,"byteOffset":21328,"byteLength":5280,"target":34963},{"buffer":0,"byteOffset":26608,"byteLength":504,"byteStride":12,"target":34962},{"buffer":0,"byteOffset":27112,"byteLength":336,"byteStride":8,"target":34962},{"buffer":0,"byteOffset":27448,"byteLength":1008,"target":34963},{"buffer":0,"byteOffset":28456,"byteLength":408,"byteStride":12,"target":34962},{"buffer":0,"byteOffset":28864,"byteLength":272,"byteStride":8,"target":34962},{"buffer":0,"byteOffset":29136,"byteLength":768,"target":34963},{"buffer":0,"byteOffset":29904,"byteLength":792,"byteStride":12,"target":34962},{"buffer":0,"byteOffset":30696,"byteLength":528,"byteStride":8,"target":34962},{"buffer":0,"byteOffset":31224,"byteLength":1632,"target":34963},{"buffer":0,"byteOffset":32856,"byteLength":216,"byteStride":12,"target":34962},{"buffer":0,"byteOffset":33072,"byteLength":144,"byteStride":8,"target":34962},{"buffer":0,"byteOffset":33216,"byteLength":384,"target":34963},{"buffer":0,"byteOffset":33600,"byteLength":312,"byteStride":12,"target":34962},{"buffer":0,"byteOffset":33912,"byteLength":208,"byteStride":8,"target":34962},{"buffer":0,"byteOffset":34120,"byteLength":576,"target":34963},{"buffer":0,"byteOffset":34696,"byteLength":4368,"byteStride":12,"target":34962},{"buffer":0,"byteOffset":39064,"byteLength":2912,"byteStride":8,"target":34962},{"buffer":0,"byteOffset":41976,"byteLength":9744,"target":34963},{"buffer":0,"byteOffset":51720,"byteLength":120,"byteStride":12,"target":34962},{"buffer":0,"byteOffset":51840,"byteLength":80,"byteStride":8,"target":34962},{"buffer":0,"byteOffset":51920,"byteLength":192,"target":34963},{"buffer":0,"byteOffset":52112,"byteLength":144,"byteStride":12,"target":34962},{"buffer":0,"byteOffset":52256,"byteLength":96,"byteStride":8,"target":34962},{"buffer":0,"byteOffset":52352,"byteLength":240,"target":34963},{"buffer":0,"byteOffset":52592,"byteLength":480,"byteStride":12,"target":34962},{"buffer":0,"byteOffset":53072,"byteLength":320,"byteStride":8,"target":34962},{"buffer":0,"byteOffset":53392,"byteLength":960,"target":34963},{"buffer":0,"byteOffset":54352,"byteLength":696,"byteStride":12,"target":34962},{"buffer":0,"byteOffset":55048,"byteLength":464,"byteStride":8,"target":34962},{"buffer":0,"byteOffset":55512,"byteLength":1392,"target":34963},{"buffer":0,"byteOffset":56904,"byteLength":672,"byteStride":12,"target":34962},{"buffer":0,"byteOffset":57576,"byteLength":448,"byteStride":8,"target":34962},{"buffer":0,"byteOffset":58024,"byteLength":1392,"target":34963},{"buffer":0,"byteOffset":59416,"byteLength":192,"byteStride":12,"target":34962},{"buffer":0,"byteOffset":59608,"byteLength":128,"byteStride":8,"target":34962},{"buffer":0,"byteOffset":59736,"byteLength":336,"target":34963},{"buffer":0,"byteOffset":60072,"byteLength":120,"byteStride":12,"target":34962},{"buffer":0,"byteOffset":60192,"byteLength":80,"byteStride":8,"target":34962},{"buffer":0,"byteOffset":60272,"byteLength":192,"target":34963},{"buffer":0,"byteOffset":60464,"byteLength":576,"byteStride":12,"target":34962},{"buffer":0,"byteOffset":61040,"byteLength":384,"byteStride":8,"target":34962},{"buffer":0,"byteOffset":61424,"byteLength":1152,"target":34963},{"buffer":0,"byteOffset":62576,"byteLength":624,"byteStride":12,"target":34962},{"buffer":0,"byteOffset":63200,"byteLength":416,"byteStride":8,"target":34962},{"buffer":0,"byteOffset":63616,"byteLength":1248,"target":34963},{"buffer":0,"byteOffset":64864,"byteLength":288,"byteStride":12,"target":34962},{"buffer":0,"byteOffset":65152,"byteLength":192,"byteStride":8,"target":34962},{"buffer":0,"byteOffset":65344,"byteLength":528,"target":34963},{"buffer":0,"byteOffset":65872,"byteLength":264,"byteStride":12,"target":34962},{"buffer":0,"byteOffset":66136,"byteLength":176,"byteStride":8,"target":34962},{"buffer":0,"byteOffset":66312,"byteLength":480,"target":34963},{"buffer":0,"byteOffset":66792,"byteLength":120,"byteStride":12,"target":34962},{"buffer":0,"byteOffset":66912,"byteLength":80,"byteStride":8,"target":34962},{"buffer":0,"byteOffset":66992,"byteLength":192,"target":34963},{"buffer":0,"byteOffset":67184,"byteLength":648,"byteStride":12,"target":34962},{"buffer":0,"byteOffset":67832,"byteLength":432,"byteStride":8,"target":34962},{"buffer":0,"byteOffset":68264,"byteLength":1248,"target":34963}],"buffers":[{"byteLength":69512,"uri":"scene.bin"}]}