{"asset":{"generator":"3D Builder","version":"2.0"},"scene":0,"scenes":[{"nodes":[0,1,2]}],"nodes":[{"mesh":0,"matrix":[1,0,0,0,0,-1.1920928955078125E-7,-0.99999988079071045,0,0,0.15378932654857635,-1.8333118134705728E-8,0,0,0.0055023999884724617,-6.5593724896118033E-10,1]},{"mesh":1,"matrix":[39.370079040527344,0,0,0,0,-34.703987121582031,-18.591249465942383,0,0,18.591230392456055,-34.703956604003906,0,0.11992828547954559,0.022975660860538483,-0.022434113547205925,1]},{"mesh":2,"matrix":[0.022553149610757828,0,0,0,0,-2.688540057249611E-9,-0.022553106769919395,0,0,0.0011276558507233858,-9.880410933860162E-10,0,0.095887511968612671,0.0099864499643445015,-0.054845228791236877,1]}],"meshes":[{"primitives":[{"attributes":{"POSITION":0,"TEXCOORD_0":1},"mode":4,"indices":2,"material":0}]},{"primitives":[{"attributes":{"POSITION":3,"TEXCOORD_0":4},"mode":4,"indices":5,"material":1}]},{"primitives":[{"attributes":{"POSITION":6,"COLOR_0":7},"mode":4,"indices":8}]}],"materials":[{"pbrMetallicRoughness":{"baseColorFactor":[1,1,1,1],"metallicFactor":0,"roughnessFactor":1,"baseColorTexture":{"index":0,"texCoord":0}},"alphaMode":"OPAQUE"},{"pbrMetallicRoughness":{"baseColorFactor":[1,1,1,1],"metallicFactor":1,"roughnessFactor":1,"baseColorTexture":{"index":1,"texCoord":0},"metallicRoughnessTexture":{"index":2,"texCoord":0}},"alphaMode":"OPAQUE"}],"textures":[{"source":0,"sampler":0},{"source":1,"sampler":0},{"source":2,"sampler":0}],"images":[{"uri":"2.png"},{"uri":"1471670405_2048x2048_11563080508590297124.png"},{"uri":"688783533_512x512_12154559721164250551.png"}],"samplers":[{"magFilter":9729,"wrapS":10497,"wrapT":10497}],"accessors":[{"bufferView":0,"byteOffset":0,"count":20,"componentType":5126,"type":"VEC3","min":[0,0,0],"max":[0.0858519971370697,0.033273998647928238,0.01300480030477047]},{"bufferView":1,"byteOffset":0,"count":20,"componentType":5126,"type":"VEC2"},{"bufferView":2,"byteOffset":0,"count":108,"componentType":5125,"type":"SCALAR"},{"bufferView":3,"byteOffset":0,"count":4910,"componentType":5126,"type":"VEC3","min":[-0.00038477295311167836,-0.00038653207593597472,-4.2299493625093549E-19],"max":[0.00038807775126770139,0.00038631862844340503,0.00087032729061320424]},{"bufferView":4,"byteOffset":0,"count":4910,"componentType":5126,"type":"VEC2"},{"bufferView":5,"byteOffset":0,"count":23184,"componentType":5125,"type":"SCALAR"},{"bufferView":6,"byteOffset":0,"count":24654,"componentType":5126,"type":"VEC3","min":[-0.59038746356964111,-2.9311599731445313,-1.1407952308654785],"max":[1.1831930875778198,-1.1575795412063599,1.16481351852417]},{"bufferView":7,"byteOffset":0,"count":24654,"componentType":5121,"type":"VEC4","normalized":true},{"bufferView":8,"byteOffset":0,"count":96006,"componentType":5125,"type":"SCALAR"}],"bufferViews":[{"buffer":0,"byteOffset":0,"byteLength":240,"byteStride":12,"target":34962},{"buffer":0,"byteOffset":240,"byteLength":160,"byteStride":8,"target":34962},{"buffer":0,"byteOffset":400,"byteLength":432,"target":34963},{"buffer":0,"byteOffset":832,"byteLength":58920,"byteStride":12,"target":34962},{"buffer":0,"byteOffset":59752,"byteLength":39280,"byteStride":8,"target":34962},{"buffer":0,"byteOffset":99032,"byteLength":92736,"target":34963},{"buffer":0,"byteOffset":191768,"byteLength":295848,"byteStride":12,"target":34962},{"buffer":0,"byteOffset":487616,"byteLength":98616,"byteStride":4,"target":34962},{"buffer":0,"byteOffset":586232,"byteLength":384024,"target":34963}],"buffers":[{"byteLength":970256,"uri":"smm.bin"}]}