{
  "accessors": [
    {
      "bufferView": 2,
      "componentType": 5126,
      "count": 559,
      "max": [
        0.9999997019767761,
        1.0,
        0.9999994039535522
      ],
      "min": [
        -0.9999990463256836,
        -1.0,
        -0.9999987483024597
      ],
      "type": "VEC3"
    },
    {
      "bufferView": 2,
      "byteOffset": 6708,
      "componentType": 5126,
      "count": 559,
      "max": [
        1.0,
        1.0,
        1.0
      ],
      "min": [
        -1.0,
        -1.0,
        -1.0
      ],
      "type": "VEC3"
    },
    {
      "bufferView": 1,
      "componentType": 5126,
      "count": 559,
      "max": [
        1.0000001192092896,
        1.0
      ],
      "min": [
        0.0,
        0.0
      ],
      "type": "VEC2"
    },
    {
      "bufferView": 0,
      "componentType": 5125,
      "count": 2880,
      "type": "SCALAR"
    },
    {
      "bufferView": 2,
      "byteOffset": 13416,
      "componentType": 5126,
      "count": 3830,
      "max": [
        1.0,
        1.0,
        0.9999999403953552
      ],
      "min": [
        -0.9999999403953552,
        -1.0,
        -0.9999999403953552
      ],
      "type": "VEC3"
    },
    {
      "bufferView": 2,
      "byteOffset": 59376,
      "componentType": 5126,
      "count": 3830,
      "max": [
        0.9854130744934082,
        0.9877923727035522,
        0.9846605658531189
      ],
      "min": [
        -0.9854134917259216,
        -0.9877923727035522,
        -0.9846721291542053
      ],
      "type": "VEC3"
    },
    {
      "bufferView": 1,
      "byteOffset": 4472,
      "componentType": 5126,
      "count": 3830,
      "max": [
        1.0,
        0.47238200902938843
      ],
      "min": [
        0.0,
        0.0
      ],
      "type": "VEC2"
    },
    {
      "bufferView": 0,
      "byteOffset": 11520,
      "componentType": 5125,
      "count": 5760,
      "type": "SCALAR"
    },
    {
      "bufferView": 3,
      "componentType": 5126,
      "count": 500,
      "max": [
        20.83333396911621
      ],
      "min": [
        0.0416666679084301
      ],
      "type": "SCALAR"
    },
    {
      "bufferView": 5,
      "componentType": 5126,
      "count": 500,
      "max": [
        0.08505868166685104,
        0.9963743686676025,
        0.08505888283252716,
        0.9963749647140503
      ],
      "min": [
        -0.006886608432978392,
        -0.9963657855987549,
        -0.08473465591669083,
        0.001775349141098559
      ],
      "type": "VEC4"
    },
    {
      "bufferView": 3,
      "byteOffset": 2000,
      "componentType": 5126,
      "count": 19,
      "max": [
        20.83333396911621
      ],
      "min": [
        0.0416666679084301
      ],
      "type": "SCALAR"
    },
    {
      "bufferView": 4,
      "componentType": 5126,
      "count": 19,
      "max": [
        1.0000001192092896,
        1.0,
        1.0000001192092896
      ],
      "min": [
        1.0,
        1.0,
        0.9999998807907104
      ],
      "type": "VEC3"
    },
    {
      "bufferView": 3,
      "byteOffset": 2076,
      "componentType": 5126,
      "count": 500,
      "max": [
        20.83333396911621
      ],
      "min": [
        0.0416666679084301
      ],
      "type": "SCALAR"
    },
    {
      "bufferView": 5,
      "byteOffset": 8000,
      "componentType": 5126,
      "count": 500,
      "max": [
        0.0,
        0.9999950528144836,
        -0.0,
        1.0
      ],
      "min": [
        0.0,
        -0.9999950528144836,
        -0.0,
        0.0031475850846618414
      ],
      "type": "VEC4"
    }
  ],
  "animations": [
    {
      "channels": [
        {
          "sampler": 0,
          "target": {
            "node": 3,
            "path": "rotation"
          }
        },
        {
          "sampler": 1,
          "target": {
            "node": 3,
            "path": "scale"
          }
        }
      ],
      "name": "Action",
      "samplers": [
        {
          "input": 8,
          "interpolation": "LINEAR",
          "output": 9
        },
        {
          "input": 10,
          "interpolation": "LINEAR",
          "output": 11
        }
      ]
    },
    {
      "channels": [
        {
          "sampler": 0,
          "target": {
            "node": 3,
            "path": "rotation"
          }
        }
      ],
      "name": "earth_HoloAction",
      "samplers": [
        {
          "input": 12,
          "interpolation": "LINEAR",
          "output": 13
        }
      ]
    }
  ],
  "asset": {
    "extras": {
      "author": "tamminen (https://sketchfab.com/tamminen)",
      "license": "SKETCHFAB Standard (https://sketchfab.com/licenses)",
      "source": "https://sketchfab.com/3d-models/hologram-planet-earth-animated-d00d5b072512496a9e83735c88c23a30",
      "title": "Hologram Planet Earth - Animated"
    },
    "generator": "Sketchfab-15.70.0",
    "version": "2.0"
  },
  "bufferViews": [
    {
      "buffer": 0,
      "byteLength": 34560,
      "name": "floatBufferViews",
      "target": 34963
    },
    {
      "buffer": 0,
      "byteLength": 35112,
      "byteOffset": 34560,
      "byteStride": 8,
      "name": "floatBufferViews",
      "target": 34962
    },
    {
      "buffer": 0,
      "byteLength": 105336,
      "byteOffset": 69672,
      "byteStride": 12,
      "name": "floatBufferViews",
      "target": 34962
    },
    {
      "buffer": 0,
      "byteLength": 4076,
      "byteOffset": 175008,
      "name": "floatBufferViews"
    },
    {
      "buffer": 0,
      "byteLength": 228,
      "byteOffset": 179084,
      "byteStride": 12,
      "name": "floatBufferViews"
    },
    {
      "buffer": 0,
      "byteLength": 16000,
      "byteOffset": 179312,
      "byteStride": 16,
      "name": "floatBufferViews"
    }
  ],
  "buffers": [
    {
      "byteLength": 195312,
      "uri": "scene.bin"
    }
  ],
  "images": [
    {
      "uri": "textures/earth_holo_baseColor.png"
    }
  ],
  "materials": [
    {
      "alphaMode": "BLEND",
      "doubleSided": true,
      "name": "earth_holo",
      "pbrMetallicRoughness": {
        "baseColorTexture": {
          "index": 0
        },
        "metallicFactor": 0.0,
        "roughnessFactor": 0.5
      }
    },
    {
      "doubleSided": true,
      "emissiveFactor": [
        0.6552400921602808,
        0.6552400921602808,
        0.6552400921602808
      ],
      "name": "grid",
      "pbrMetallicRoughness": {
        "baseColorFactor": [
          0.8,
          0.8,
          0.8,
          1.0
        ],
        "metallicFactor": 0.0,
        "roughnessFactor": 0.5
      }
    }
  ],
  "meshes": [
    {
      "name": "Object_0",
      "primitives": [
        {
          "attributes": {
            "NORMAL": 1,
            "POSITION": 0,
            "TEXCOORD_0": 2
          },
          "indices": 3,
          "material": 0,
          "mode": 4
        }
      ]
    },
    {
      "name": "Object_1",
      "primitives": [
        {
          "attributes": {
            "NORMAL": 5,
            "POSITION": 4,
            "TEXCOORD_0": 6
          },
          "indices": 7,
          "material": 1,
          "mode": 4
        }
      ]
    }
  ],
  "nodes": [
    {
      "children": [
        1
      ],
      "matrix": [
        1.0,
        0.0,
        0.0,
        0.0,
        0.0,
        2.220446049250313e-16,
        -1.0,
        0.0,
        0.0,
        1.0,
        2.220446049250313e-16,
        0.0,
        0.0,
        0.0,
        0.0,
        1.0
      ],
      "name": "Sketchfab_model"
    },
    {
      "children": [
        2
      ],
      "name": "root"
    },
    {
      "children": [
        3
      ],
      "matrix": [
        1.0,
        0.0,
        0.0,
        0.0,
        0.0,
        2.220446049250313e-16,
        1.0,
        0.0,
        0.0,
        -1.0,
        2.220446049250313e-16,
        0.0,
        0.0,
        0.0,
        0.0,
        1.0
      ],
      "name": "GLTF_SceneRootNode"
    },
    {
      "children": [
        4,
        5
      ],
      "name": "earth_Holo_1"
    },
    {
      "mesh": 0,
      "name": "Object_4"
    },
    {
      "children": [
        6
      ],
      "matrix": [
        1.015160597557806,
        -0.014259335263535879,
        0.05516886951796653,
        0.0,
        0.02335464383327889,
        1.0020460217727007,
        -0.1707521668995591,
        0.0,
        -0.05197589265677909,
        0.17175102109541088,
        1.0007987135159522,
        0.0,
        0.0,
        0.0,
        0.0,
        1.0
      ],
      "name": "grid_0"
    },
    {
      "mesh": 1,
      "name": "Object_6"
    }
  ],
  "samplers": [
    {
      "magFilter": 9729,
      "minFilter": 9987,
      "wrapS": 10497,
      "wrapT": 10497
    }
  ],
  "scene": 0,
  "scenes": [
    {
      "name": "Sketchfab_Scene",
      "nodes": [
        0
      ]
    }
  ],
  "textures": [
    {
      "sampler": 0,
      "source": 0
    }
  ]
}
