{"asset":{"generator":"3D Builder","version":"2.0"},"scene":0,"scenes":[{"nodes":[0]}],"nodes":[{"children":[1,2,3]},{"mesh":0,"matrix":[20.222629547119141,0,0,0,0,-2.41072530116071E-6,-20.222627639770508,0,0,20.222627639770508,-2.41072530116071E-6,0,3.5730516856347094E-7,-5.6792125933654083E-14,-4.7640682510063925E-7,1]},{"mesh":1,"matrix":[20.222627639770508,0,0,0,0,-2.4107250737870345E-6,-20.222625732421875,0,0,20.222625732421875,-2.4107250737870345E-6,0,3.5730516856347094E-7,-5.6792119157390505E-14,-4.7640676825722039E-7,1]},{"mesh":2,"matrix":[20.222627639770508,0,0,0,0,-2.4107250737870345E-6,-20.222625732421875,0,0,20.222625732421875,-2.4107250737870345E-6,0,3.5730516856347094E-7,-5.6792119157390505E-14,-4.7640676825722039E-7,1]}],"meshes":[{"primitives":[{"attributes":{"POSITION":0,"TEXCOORD_0":1},"mode":4,"indices":2,"material":0}]},{"primitives":[{"attributes":{"POSITION":3,"TEXCOORD_0":4},"mode":4,"indices":5,"material":1}]},{"primitives":[{"attributes":{"POSITION":6,"COLOR_0":7},"mode":4,"indices":8}]}],"materials":[{"pbrMetallicRoughness":{"baseColorFactor":[1,1,1,1],"metallicFactor":0,"roughnessFactor":1,"baseColorTexture":{"index":0,"texCoord":0}},"alphaMode":"OPAQUE"},{"pbrMetallicRoughness":{"baseColorFactor":[1,1,1,1],"metallicFactor":1,"roughnessFactor":1,"baseColorTexture":{"index":1,"texCoord":0},"metallicRoughnessTexture":{"index":2,"texCoord":0}},"alphaMode":"OPAQUE"}],"textures":[{"source":0,"sampler":0},{"source":1,"sampler":0},{"source":2,"sampler":0}],"images":[{"uri":"2.png"},{"uri":"texture1.png"},{"uri":"texture2.png"}],"samplers":[{"magFilter":9729,"wrapS":10497,"wrapT":10497}],"accessors":[{"bufferView":0,"byteOffset":0,"count":20,"componentType":5126,"type":"VEC3","min":[-0.19249159097671509,-0.059254102408885956,0],"max":[0.051960170269012451,0.035488978028297424,0.0056947190314531326]},{"bufferView":1,"byteOffset":0,"count":20,"componentType":5126,"type":"VEC2"},{"bufferView":2,"byteOffset":0,"count":108,"componentType":5125,"type":"SCALAR"},{"bufferView":3,"byteOffset":0,"count":4910,"componentType":5126,"type":"VEC3","min":[0.105854332447052,-0.0069474875926971436,0.016507748514413834],"max":[0.1924915611743927,0.091319702565670013,0.098899111151695251]},{"bufferView":4,"byteOffset":0,"count":4910,"componentType":5126,"type":"VEC2"},{"bufferView":5,"byteOffset":0,"count":23184,"componentType":5125,"type":"SCALAR"},{"bufferView":6,"byteOffset":0,"count":24654,"componentType":5126,"type":"VEC3","min":[0.042622014880180359,-0.091319754719734192,0.0091048423200845718],"max":[0.15651601552963257,0.022573977708816528,0.016507823020219803]},{"bufferView":7,"byteOffset":0,"count":24654,"componentType":5121,"type":"VEC4","normalized":true},{"bufferView":8,"byteOffset":0,"count":96006,"componentType":5125,"type":"SCALAR"}],"bufferViews":[{"buffer":0,"byteOffset":0,"byteLength":240,"byteStride":12,"target":34962},{"buffer":0,"byteOffset":240,"byteLength":160,"byteStride":8,"target":34962},{"buffer":0,"byteOffset":400,"byteLength":432,"target":34963},{"buffer":0,"byteOffset":832,"byteLength":58920,"byteStride":12,"target":34962},{"buffer":0,"byteOffset":59752,"byteLength":39280,"byteStride":8,"target":34962},{"buffer":0,"byteOffset":99032,"byteLength":92736,"target":34963},{"buffer":0,"byteOffset":191768,"byteLength":295848,"byteStride":12,"target":34962},{"buffer":0,"byteOffset":487616,"byteLength":98616,"byteStride":4,"target":34962},{"buffer":0,"byteOffset":586232,"byteLength":384024,"target":34963}],"buffers":[{"byteLength":970256,"uri":"scene.bin"}]}