{"asset":{"generator":"3D Builder","version":"2.0"},"scene":0,"scenes":[{"nodes":[0,1,2]}],"nodes":[{"mesh":0,"matrix":[2.8473625183105469,0,0,0,0,-3.3943206290132366E-7,-2.8473622798919678,0,0,2.8473622798919678,-3.3943206290132366E-7,0,-0.19249159097671509,-0.015667317435145378,0.059254113584756851,1]},{"mesh":1,"matrix":[2.8473625183105469,0,0,0,0,-3.3943206290132366E-7,-2.8473622798919678,0,0,2.8473622798919678,-3.3943206290132366E-7,0,-0.19249159097671509,-0.015667317435145378,0.059254113584756851,1]},{"mesh":2,"matrix":[2.8473625183105469,0,0,0,0,-3.3943206290132366E-7,-2.8473622798919678,0,0,2.8473622798919678,-3.3943206290132366E-7,0,-0.19249159097671509,-0.015667317435145378,0.059254113584756851,1]}],"meshes":[{"primitives":[{"attributes":{"POSITION":0,"TEXCOORD_0":1},"mode":4,"indices":2,"material":0}]},{"primitives":[{"attributes":{"POSITION":3,"TEXCOORD_0":4},"mode":4,"indices":5,"material":1}]},{"primitives":[{"attributes":{"POSITION":6,"COLOR_0":7},"mode":4,"indices":8}]}],"materials":[{"pbrMetallicRoughness":{"baseColorFactor":[1,1,1,1],"metallicFactor":0,"roughnessFactor":1,"baseColorTexture":{"index":0,"texCoord":0}},"alphaMode":"OPAQUE"},{"pbrMetallicRoughness":{"baseColorFactor":[1,1,1,1],"metallicFactor":1,"roughnessFactor":1,"baseColorTexture":{"index":1,"texCoord":0},"metallicRoughnessTexture":{"index":2,"texCoord":0}},"alphaMode":"OPAQUE"}],"textures":[{"source":0,"sampler":0},{"source":1,"sampler":0},{"source":2,"sampler":0}],"images":[{"uri":"2.png"},{"uri":"texture1.png"},{"uri":"texture2.png"}],"samplers":[{"magFilter":9729,"wrapS":10497,"wrapT":10497}],"accessors":[{"bufferView":0,"byteOffset":0,"count":20,"componentType":5126,"type":"VEC3","min":[0,0,0.0055023995228111744],"max":[0.0858519971370697,0.033273987472057343,0.0075023984536528587]},{"bufferView":1,"byteOffset":0,"count":20,"componentType":5126,"type":"VEC2"},{"bufferView":2,"byteOffset":0,"count":108,"componentType":5125,"type":"SCALAR"},{"bufferView":3,"byteOffset":0,"count":4910,"componentType":5126,"type":"VEC3","min":[0.10477974265813828,0.018370203673839569,0.011299959383904934],"max":[0.135206937789917,0.052881866693496704,0.040235996246337891]},{"bufferView":4,"byteOffset":0,"count":4910,"componentType":5126,"type":"VEC2"},{"bufferView":5,"byteOffset":0,"count":23184,"componentType":5125,"type":"SCALAR"},{"bufferView":6,"byteOffset":0,"count":24654,"componentType":5126,"type":"VEC3","min":[0.082572415471076965,-0.011261530220508575,0.0087000411003828049],"max":[0.12257224321365356,0.02873820997774601,0.011299984529614449]},{"bufferView":7,"byteOffset":0,"count":24654,"componentType":5121,"type":"VEC4","normalized":true},{"bufferView":8,"byteOffset":0,"count":96006,"componentType":5125,"type":"SCALAR"}],"bufferViews":[{"buffer":0,"byteOffset":0,"byteLength":240,"byteStride":12,"target":34962},{"buffer":0,"byteOffset":240,"byteLength":160,"byteStride":8,"target":34962},{"buffer":0,"byteOffset":400,"byteLength":432,"target":34963},{"buffer":0,"byteOffset":832,"byteLength":58920,"byteStride":12,"target":34962},{"buffer":0,"byteOffset":59752,"byteLength":39280,"byteStride":8,"target":34962},{"buffer":0,"byteOffset":99032,"byteLength":92736,"target":34963},{"buffer":0,"byteOffset":191768,"byteLength":295848,"byteStride":12,"target":34962},{"buffer":0,"byteOffset":487616,"byteLength":98616,"byteStride":4,"target":34962},{"buffer":0,"byteOffset":586232,"byteLength":384024,"target":34963}],"buffers":[{"byteLength":970256,"uri":"scene.bin"}]}