{"asset":{"generator":"3D Builder","version":"2.0"},"scene":0,"scenes":[{"nodes":[0]}],"nodes":[{"mesh":0,"matrix":[35.639110565185547,0,0,0,0,-4.2485130506975111E-6,-35.639106750488281,0,0,35.639106750488281,-4.2485130506975111E-6,0,0,8.1753697145359183E-8,-2.6647666118151392E-7,1]}],"meshes":[{"primitives":[{"attributes":{"POSITION":0,"TEXCOORD_0":1},"mode":4,"indices":2,"material":0}]}],"materials":[{"pbrMetallicRoughness":{"baseColorFactor":[1,1,1,1],"metallicFactor":0,"roughnessFactor":1,"baseColorTexture":{"index":0,"texCoord":0}},"alphaMode":"OPAQUE"}],"textures":[{"source":0,"sampler":0}],"images":[{"uri":"12.png"}],"samplers":[{"magFilter":9729,"wrapS":10497,"wrapT":10497}],"accessors":[{"bufferView":0,"byteOffset":0,"count":26,"componentType":5126,"type":"VEC3","min":[-0.16835436224937439,-0.045102875679731369,-3.7252902984619141E-9],"max":[0.16835436224937439,0.045102853327989578,0.0070324838161468506]},{"bufferView":1,"byteOffset":0,"count":26,"componentType":5126,"type":"VEC2"},{"bufferView":2,"byteOffset":0,"count":144,"componentType":5125,"type":"SCALAR"}],"bufferViews":[{"buffer":0,"byteOffset":0,"byteLength":312,"byteStride":12,"target":34962},{"buffer":0,"byteOffset":312,"byteLength":208,"byteStride":8,"target":34962},{"buffer":0,"byteOffset":520,"byteLength":576,"target":34963}],"buffers":[{"byteLength":1096,"uri":"scene.bin"}]}