{"asset":{"generator":"3D Builder","version":"2.0"},"scene":0,"scenes":[{"nodes":[0]}],"nodes":[{"children":[1,2,3,4]},{"mesh":0,"matrix":[33.058101654052734,0,0,0,0,-3.940832812077133E-6,-33.058097839355469,0,0,33.058097839355469,-3.940832812077133E-6,0,0,2.4223311356763588E-7,-1.113883968173468E-6,1]},{"mesh":1,"matrix":[33.058101654052734,0,0,0,0,-3.940832812077133E-6,-33.058097839355469,0,0,33.058097839355469,-3.940832812077133E-6,0,0,2.4223311356763588E-7,-1.1138837407997926E-6,1]},{"mesh":2,"matrix":[33.058101654052734,0,0,0,0,-3.940832812077133E-6,-33.058097839355469,0,0,33.058097839355469,-3.940832812077133E-6,0,0,2.4223311356763588E-7,-1.1138837407997926E-6,1]},{"mesh":3,"matrix":[33.058101654052734,0,0,0,0,-3.940832812077133E-6,-33.058097839355469,0,0,33.058097839355469,-3.940832812077133E-6,0,0,2.4223311356763588E-7,-1.1138837407997926E-6,1]}],"meshes":[{"primitives":[{"attributes":{"POSITION":0,"TEXCOORD_0":1},"mode":4,"indices":2,"material":0}]},{"primitives":[{"attributes":{"POSITION":3,"TEXCOORD_0":4},"mode":4,"indices":5,"material":1}]},{"primitives":[{"attributes":{"POSITION":6,"TEXCOORD_0":7},"mode":4,"indices":8,"material":1}]},{"primitives":[{"attributes":{"POSITION":9,"TEXCOORD_0":10},"mode":4,"indices":11,"material":1}]}],"materials":[{"pbrMetallicRoughness":{"baseColorFactor":[1,1,1,1],"metallicFactor":0,"roughnessFactor":1,"baseColorTexture":{"index":0,"texCoord":0}},"alphaMode":"OPAQUE"},{"pbrMetallicRoughness":{"baseColorFactor":[1,1,1,1],"metallicFactor":1,"roughnessFactor":1,"baseColorTexture":{"index":1,"texCoord":0},"metallicRoughnessTexture":{"index":2,"texCoord":0}},"alphaMode":"OPAQUE"}],"textures":[{"source":0,"sampler":0},{"source":1,"sampler":0},{"source":2,"sampler":0}],"images":[{"uri":"15.png"},{"uri":"texture1.png"},{"uri":"texture2.png"}],"samplers":[{"magFilter":9729,"wrapS":10497,"wrapT":10497}],"accessors":[{"bufferView":0,"byteOffset":0,"count":26,"componentType":5126,"type":"VEC3","min":[-0.20014405250549316,-0.147853821516037,-7.4505805969238281E-9],"max":[0.20014405250549316,-0.054348267614841461,0.0082726255059242249]},{"bufferView":1,"byteOffset":0,"count":26,"componentType":5126,"type":"VEC2"},{"bufferView":2,"byteOffset":0,"count":144,"componentType":5125,"type":"SCALAR"},{"bufferView":3,"byteOffset":0,"count":2520,"componentType":5126,"type":"VEC3","min":[-0.10202270746231079,-0.035871200263500214,0.048772372305393219],"max":[0.1020226776599884,0.14785376191139221,0.060499534010887146]},{"bufferView":4,"byteOffset":0,"count":2520,"componentType":5126,"type":"VEC2"},{"bufferView":5,"byteOffset":0,"count":12960,"componentType":5125,"type":"SCALAR"},{"bufferView":6,"byteOffset":0,"count":777,"componentType":5126,"type":"VEC3","min":[-0.014103785157203674,-0.015376284718513489,0.049768738448619843],"max":[0.016678795218467712,0.016485407948493958,0.060439497232437134]},{"bufferView":7,"byteOffset":0,"count":777,"componentType":5126,"type":"VEC2"},{"bufferView":8,"byteOffset":0,"count":4032,"componentType":5125,"type":"SCALAR"},{"bufferView":9,"byteOffset":0,"count":298,"componentType":5126,"type":"VEC3","min":[-0.015176743268966675,0.021778285503387451,0.049523070454597473],"max":[0.017652451992034912,0.098235219717025757,0.060453265905380249]},{"bufferView":10,"byteOffset":0,"count":298,"componentType":5126,"type":"VEC2"},{"bufferView":11,"byteOffset":0,"count":1428,"componentType":5125,"type":"SCALAR"}],"bufferViews":[{"buffer":0,"byteOffset":0,"byteLength":312,"byteStride":12,"target":34962},{"buffer":0,"byteOffset":312,"byteLength":208,"byteStride":8,"target":34962},{"buffer":0,"byteOffset":520,"byteLength":576,"target":34963},{"buffer":0,"byteOffset":1096,"byteLength":30240,"byteStride":12,"target":34962},{"buffer":0,"byteOffset":31336,"byteLength":20160,"byteStride":8,"target":34962},{"buffer":0,"byteOffset":51496,"byteLength":51840,"target":34963},{"buffer":0,"byteOffset":103336,"byteLength":9324,"byteStride":12,"target":34962},{"buffer":0,"byteOffset":112660,"byteLength":6216,"byteStride":8,"target":34962},{"buffer":0,"byteOffset":118876,"byteLength":16128,"target":34963},{"buffer":0,"byteOffset":135004,"byteLength":3576,"byteStride":12,"target":34962},{"buffer":0,"byteOffset":138580,"byteLength":2384,"byteStride":8,"target":34962},{"buffer":0,"byteOffset":140964,"byteLength":5712,"target":34963}],"buffers":[{"byteLength":146676,"uri":"scene.bin"}]}