{"asset":{"generator":"3D Builder","version":"2.0"},"scene":0,"scenes":[{"nodes":[0,1,2,3]}],"nodes":[{"mesh":0,"matrix":[4.1363186836242676,0,0,0,0,-4.9308761163047166E-7,-4.1363182067871094,0,0,4.1363182067871094,-4.9308761163047166E-7,0,-0.20014405250549316,-0.0372268408536911,0.14785383641719818,1]},{"mesh":1,"matrix":[4.1363186836242676,0,0,0,0,-4.9308761163047166E-7,-4.1363182067871094,0,0,4.1363182067871094,-4.9308761163047166E-7,0,-0.20014405250549316,-0.0372268408536911,0.14785383641719818,1]},{"mesh":2,"matrix":[4.1363186836242676,0,0,0,0,-4.9308761163047166E-7,-4.1363182067871094,0,0,4.1363182067871094,-4.9308761163047166E-7,0,-0.20014405250549316,-0.0372268408536911,0.14785383641719818,1]},{"mesh":3,"matrix":[4.1363186836242676,0,0,0,0,-4.9308761163047166E-7,-4.1363182067871094,0,0,4.1363182067871094,-4.9308761163047166E-7,0,-0.20014405250549316,-0.0372268408536911,0.14785383641719818,1]}],"meshes":[{"primitives":[{"attributes":{"POSITION":0,"TEXCOORD_0":1},"mode":4,"indices":2,"material":0}]},{"primitives":[{"attributes":{"POSITION":3,"TEXCOORD_0":4},"mode":4,"indices":5,"material":1}]},{"primitives":[{"attributes":{"POSITION":6,"TEXCOORD_0":7},"mode":4,"indices":8,"material":1}]},{"primitives":[{"attributes":{"POSITION":9,"TEXCOORD_0":10},"mode":4,"indices":11,"material":1}]}],"materials":[{"pbrMetallicRoughness":{"baseColorFactor":[1,1,1,1],"metallicFactor":0,"roughnessFactor":1,"baseColorTexture":{"index":0,"texCoord":0}},"alphaMode":"OPAQUE"},{"pbrMetallicRoughness":{"baseColorFactor":[1,1,1,1],"metallicFactor":1,"roughnessFactor":1,"baseColorTexture":{"index":1,"texCoord":0},"metallicRoughnessTexture":{"index":2,"texCoord":0}},"alphaMode":"OPAQUE"}],"textures":[{"source":0,"sampler":0},{"source":1,"sampler":0},{"source":2,"sampler":0}],"images":[{"uri":"15.png"},{"uri":"texture1.png"},{"uri":"texture2.png"}],"samplers":[{"magFilter":9729,"wrapS":10497,"wrapT":10497}],"accessors":[{"bufferView":0,"byteOffset":0,"count":26,"componentType":5126,"type":"VEC3","min":[0,0,0.0089999986812472343],"max":[0.096773996949195862,0.022605990990996361,0.010999998077750206]},{"bufferView":1,"byteOffset":0,"count":26,"componentType":5126,"type":"VEC2"},{"bufferView":2,"byteOffset":0,"count":144,"componentType":5125,"type":"SCALAR"},{"bufferView":3,"byteOffset":0,"count":2520,"componentType":5126,"type":"VEC3","min":[0.023721901699900627,0.027073025703430176,0.020791254937648773],"max":[0.073052093386650085,0.071490548551082611,0.023626424372196198]},{"bufferView":4,"byteOffset":0,"count":2520,"componentType":5126,"type":"VEC2"},{"bufferView":5,"byteOffset":0,"count":12960,"componentType":5125,"type":"SCALAR"},{"bufferView":6,"byteOffset":0,"count":777,"componentType":5126,"type":"VEC3","min":[0.044977255165576935,0.032027896493673325,0.021032137796282768],"max":[0.052419278770685196,0.03973080962896347,0.02361191064119339]},{"bufferView":7,"byteOffset":0,"count":777,"componentType":5126,"type":"VEC2"},{"bufferView":8,"byteOffset":0,"count":4032,"componentType":5125,"type":"SCALAR"},{"bufferView":9,"byteOffset":0,"count":298,"componentType":5126,"type":"VEC3","min":[0.044717855751514435,0.041010420769453049,0.02097274549305439],"max":[0.052654672414064407,0.059494722634553909,0.023615239188075066]},{"bufferView":10,"byteOffset":0,"count":298,"componentType":5126,"type":"VEC2"},{"bufferView":11,"byteOffset":0,"count":1428,"componentType":5125,"type":"SCALAR"}],"bufferViews":[{"buffer":0,"byteOffset":0,"byteLength":312,"byteStride":12,"target":34962},{"buffer":0,"byteOffset":312,"byteLength":208,"byteStride":8,"target":34962},{"buffer":0,"byteOffset":520,"byteLength":576,"target":34963},{"buffer":0,"byteOffset":1096,"byteLength":30240,"byteStride":12,"target":34962},{"buffer":0,"byteOffset":31336,"byteLength":20160,"byteStride":8,"target":34962},{"buffer":0,"byteOffset":51496,"byteLength":51840,"target":34963},{"buffer":0,"byteOffset":103336,"byteLength":9324,"byteStride":12,"target":34962},{"buffer":0,"byteOffset":112660,"byteLength":6216,"byteStride":8,"target":34962},{"buffer":0,"byteOffset":118876,"byteLength":16128,"target":34963},{"buffer":0,"byteOffset":135004,"byteLength":3576,"byteStride":12,"target":34962},{"buffer":0,"byteOffset":138580,"byteLength":2384,"byteStride":8,"target":34962},{"buffer":0,"byteOffset":140964,"byteLength":5712,"target":34963}],"buffers":[{"byteLength":146676,"uri":"scene.bin"}]}